<svg width="56" height="56" viewBox="0 0 56 56" fill="none" xmlns="http://www.w3.org/2000/svg">
<path fill-rule="evenodd" clip-rule="evenodd" d="M53.2 48.9977C52.814 48.9977 52.5 48.6836 52.5 48.2977C52.5 47.9116 52.814 47.5977 53.2 47.5977C53.586 47.5977 53.9 47.9116 53.9 48.2977C53.9 48.6836 53.586 48.9977 53.2 48.9977Z" fill="#ECECFE"/>
<path fill-rule="evenodd" clip-rule="evenodd" d="M27.3016 2.79844C26.9156 2.79844 26.6016 2.48442 26.6016 2.09844C26.6016 1.71242 26.9156 1.39844 27.3016 1.39844C27.6875 1.39844 28.0016 1.71242 28.0016 2.09844C28.0016 2.48442 27.6875 2.79844 27.3016 2.79844Z" fill="#ECECFE"/>
<path fill-rule="evenodd" clip-rule="evenodd" d="M2.80156 43.4C2.41558 43.4 2.10156 43.086 2.10156 42.7C2.10156 42.314 2.41558 42 2.80156 42C3.18754 42 3.50156 42.314 3.50156 42.7C3.50156 43.086 3.18754 43.4 2.80156 43.4Z" fill="#ECECFE"/>
<path fill-rule="evenodd" clip-rule="evenodd" d="M37.9744 30.9363L40.693 24.3834C40.9893 23.6692 41.8084 23.3305 42.5226 23.6268C42.8637 23.7683 43.1351 24.0388 43.2776 24.3795L46.0203 30.9335C46.1776 31.3096 46.1633 31.7355 45.981 32.1001L44.918 34.226C44.8833 34.2955 44.8432 34.3613 44.7984 34.4229V36.9863L46.1625 41.0785C46.1869 41.1517 46.199 41.2283 46.1984 41.3051L46.1936 41.3818L45.2038 49.7818C45.1655 50.1072 44.908 50.3585 44.5895 50.3953L44.5086 50.3999H39.4882C39.1606 50.3999 38.8809 50.1736 38.8071 49.8615L38.793 49.7818L38.4683 47.0256C38.423 46.6416 38.6976 46.2937 39.0815 46.2485C39.4381 46.2064 39.7635 46.4402 39.8444 46.7812L39.8586 46.8617L40.1105 48.9999H43.8856L44.7844 41.372L43.5937 37.7999H40.4024L39.1625 41.5213C39.049 41.8618 38.6991 42.0571 38.356 41.9853L38.2771 41.964C37.9365 41.8505 37.7413 41.5005 37.813 41.1575L37.8344 41.0785L39.1984 36.9863V34.4229C39.1537 34.3613 39.1136 34.2955 39.0789 34.226L38.0153 32.0989C37.8337 31.7357 37.8188 31.3115 37.9744 30.9363ZM40.5984 34.9999V36.3999H43.3984V34.9999H40.5984ZM41.2984 26.5775L39.2675 31.4728L40.3311 33.5999H43.6658L44.7288 31.474L42.6984 26.6221V30.0999C42.6984 30.4865 42.385 30.7999 41.9984 30.7999C41.6395 30.7999 41.3436 30.5297 41.3031 30.1815L41.2984 30.0999V26.5775Z" fill="#E1000F"/>
<path d="M32.8984 37.7999C34.2184 37.7999 34.9984 38.58 34.9984 39.8999C34.9984 39.9571 34.9914 40.0141 34.9775 40.0697C34.6238 41.4846 33.0509 42.4043 30.2442 42.9113L29.7908 42.9879C29.6362 43.0124 29.4783 43.0356 29.3169 43.0578L28.8224 43.121C28.7383 43.1309 28.6533 43.1406 28.5674 43.15L28.0422 43.2032L27.4963 43.2499L26.9299 43.2901L26.3428 43.324C26.2433 43.3291 26.1429 43.3339 26.0416 43.3385L25.4237 43.3629L24.7851 43.3811L24.1259 43.3932L23.0984 43.3999C22.7118 43.3999 22.3984 43.0865 22.3984 42.6999C22.3984 42.3133 22.7118 41.9999 23.0984 41.9999L23.7634 41.9969C23.8725 41.9959 23.9806 41.9946 24.0879 41.9931L24.7206 41.9811L25.3319 41.9633L25.9216 41.9396L26.4897 41.9103L27.0363 41.8754L27.5613 41.835L28.0647 41.7892C28.1468 41.7811 28.228 41.7728 28.3083 41.7642L28.7792 41.7104C29.0093 41.6822 29.2313 41.6521 29.4451 41.62L29.862 41.5533L30.2571 41.4817L30.6306 41.4052C32.3229 41.0368 33.3061 40.5115 33.5731 39.8695L33.5963 39.8054L33.5917 39.7229C33.5592 39.3461 33.4037 39.2171 32.9909 39.2015L32.8984 39.1999C32.1713 39.1999 31.4055 39.5828 30.5934 40.3949C30.1716 40.8167 29.4634 40.5493 29.4026 39.9794L29.3984 39.8999C29.3984 39.3532 29.2452 39.1999 28.6984 39.1999C27.9713 39.1999 27.2055 39.5828 26.3934 40.3949C26.12 40.6682 25.6768 40.6682 25.4035 40.3949C25.1301 40.1215 25.1301 39.6783 25.4035 39.4049C26.458 38.3503 27.5589 37.7999 28.6984 37.7999C29.4998 37.7999 30.1022 38.0874 30.4518 38.6088L30.4792 38.6532L30.6162 38.5581C31.3002 38.0961 32.0017 37.841 32.7188 37.8045L32.8984 37.7999Z" fill="#E1000F"/>
<path d="M39.1945 9.0168C39.1541 8.66867 38.8582 8.39844 38.4992 8.39844H11.8992L11.8176 8.40315C11.4694 8.44358 11.1992 8.73945 11.1992 9.09844V46.8984L11.2039 46.9801C11.2444 47.3282 11.5402 47.5984 11.8992 47.5984H34.2992L34.3809 47.5937C34.729 47.5533 34.9992 47.2574 34.9992 46.8984L34.9945 46.8168C34.9541 46.4687 34.6582 46.1984 34.2992 46.1984H12.5992V9.79844H37.7992V23.0984L37.8039 23.1801C37.8444 23.5282 38.1402 23.7984 38.4992 23.7984C38.8858 23.7984 39.1992 23.485 39.1992 23.0984V9.09844L39.1945 9.0168Z" fill="#000091"/>
<path d="M27.9992 13.2984C27.9992 12.9118 27.6858 12.5984 27.2992 12.5984H16.0992L16.0176 12.6031C15.6694 12.6436 15.3992 12.9395 15.3992 13.2984C15.3992 13.685 15.7126 13.9984 16.0992 13.9984H27.2992L27.3809 13.9937C27.729 13.9533 27.9992 13.6574 27.9992 13.2984Z" fill="#000091"/>
<path d="M34.2992 16.7984C34.6858 16.7984 34.9992 17.1118 34.9992 17.4984C34.9992 17.8574 34.729 18.1533 34.3809 18.1937L34.2992 18.1984H16.0992C15.7126 18.1984 15.3992 17.885 15.3992 17.4984C15.3992 17.1395 15.6694 16.8436 16.0176 16.8031L16.0992 16.7984H34.2992Z" fill="#000091"/>
<path d="M30.7992 21.6984C30.7992 21.3118 30.4858 20.9984 30.0992 20.9984H16.0992L16.0176 21.0031C15.6694 21.0436 15.3992 21.3395 15.3992 21.6984C15.3992 22.085 15.7126 22.3984 16.0992 22.3984H30.0992L30.1809 22.3937C30.529 22.3533 30.7992 22.0574 30.7992 21.6984Z" fill="#000091"/>
<path d="M34.2992 25.1984C34.6858 25.1984 34.9992 25.5118 34.9992 25.8984C34.9992 26.2574 34.729 26.5533 34.3809 26.5937L34.2992 26.5984H16.0992C15.7126 26.5984 15.3992 26.285 15.3992 25.8984C15.3992 25.5395 15.6694 25.2436 16.0176 25.2031L16.0992 25.1984H34.2992Z" fill="#000091"/>
<path d="M41.9945 14.6168C41.9541 14.2687 41.6582 13.9984 41.2992 13.9984C40.9126 13.9984 40.5992 14.3118 40.5992 14.6984V20.2984L40.6039 20.3801C40.6444 20.7282 40.9402 20.9984 41.2992 20.9984C41.6858 20.9984 41.9992 20.685 41.9992 20.2984V14.6984L41.9945 14.6168Z" fill="#000091"/>
<path d="M35.6992 48.9984C36.0858 48.9984 36.3992 49.3118 36.3992 49.6984C36.3992 50.0574 36.129 50.3533 35.7809 50.3937L35.6992 50.3984H17.4992C17.1126 50.3984 16.7992 50.085 16.7992 49.6984C16.7992 49.3395 17.0694 49.0436 17.4176 49.0031L17.4992 48.9984H35.6992Z" fill="#000091"/>
<path d="M30.7992 30.0984C30.7992 29.7118 30.4858 29.3984 30.0992 29.3984H16.0992L16.0176 29.4031C15.6694 29.4436 15.3992 29.7395 15.3992 30.0984C15.3992 30.485 15.7126 30.7984 16.0992 30.7984H30.0992L30.1809 30.7937C30.529 30.7533 30.7992 30.4574 30.7992 30.0984Z" fill="#000091"/>
</svg>
