<svg width="56" height="56" viewBox="0 0 56 56" fill="none" xmlns="http://www.w3.org/2000/svg">
<path fill-rule="evenodd" clip-rule="evenodd" d="M28.0005 18.4039C23.8795 18.4039 20.5406 21.7428 20.5406 25.8638C20.5406 26.1352 20.5576 26.4162 20.5866 26.6888C20.5876 26.698 20.5884 26.7072 20.589 26.7163C21.0108 30.431 24.1681 33.3237 28.0005 33.3237C32.1216 33.3237 35.4605 29.9848 35.4605 25.8638C35.4605 21.7428 32.1216 18.4039 28.0005 18.4039ZM19.1919 26.8118C19.1926 26.8231 19.1935 26.8344 19.1948 26.8458C19.683 31.2733 23.4378 34.7237 28.0005 34.7237C32.8948 34.7237 36.8605 30.758 36.8605 25.8638C36.8605 20.9696 32.8948 17.0039 28.0005 17.0039C23.1063 17.0039 19.1406 20.9696 19.1406 25.8638C19.1406 26.1831 19.16 26.5051 19.1919 26.8118Z" fill="#E1000F"/>
<path fill-rule="evenodd" clip-rule="evenodd" d="M27.9993 34.7242C21.6304 34.7242 16.4625 39.8864 16.4625 46.261C16.4625 46.6476 16.1491 46.961 15.7625 46.961C15.3759 46.961 15.0625 46.6476 15.0625 46.261C15.0625 39.1127 20.8577 33.3242 27.9993 33.3242C35.141 33.3242 40.936 39.1192 40.936 46.261C40.936 46.6476 40.6226 46.961 40.236 46.961C39.8494 46.961 39.536 46.6476 39.536 46.261C39.536 39.8924 34.3678 34.7242 27.9993 34.7242Z" fill="#E1000F"/>
<path d="M40.1734 15.1789C40.9466 15.1789 41.5734 14.5521 41.5734 13.7789C41.5734 13.0057 40.9466 12.3789 40.1734 12.3789C39.4002 12.3789 38.7734 13.0057 38.7734 13.7789C38.7734 14.5521 39.4002 15.1789 40.1734 15.1789Z" fill="#E1000F"/>
<path fill-rule="evenodd" clip-rule="evenodd" d="M44.8298 24C45.2164 24.0032 45.5273 24.3191 45.5241 24.7057L45.4742 30.8615C45.4711 31.2481 45.1551 31.559 44.7685 31.5558C44.382 31.5527 44.0711 31.2367 44.0742 30.8502L44.1242 24.6943C44.1273 24.3077 44.4433 23.9969 44.8298 24Z" fill="#000091"/>
<path fill-rule="evenodd" clip-rule="evenodd" d="M10.2042 8.60429C10.3365 8.47151 10.5166 8.39736 10.7041 8.39845L44.942 8.59823C45.1279 8.59932 45.3057 8.67428 45.4362 8.80658C45.5668 8.93889 45.6393 9.11768 45.6379 9.30354L45.5443 21.6215C45.5413 22.008 45.2256 22.3191 44.839 22.3161C44.4524 22.3132 44.1414 21.9974 44.1443 21.6108L44.2326 9.99412L11.4065 9.80257L11.5998 30.8497C11.6033 31.2363 11.2928 31.5526 10.9062 31.5561C10.5196 31.5597 10.2034 31.2492 10.1998 30.8626L10 9.10486C9.99831 8.9174 10.0719 8.73708 10.2042 8.60429Z" fill="#000091"/>
<path fill-rule="evenodd" clip-rule="evenodd" d="M10.3975 30.3679C10.5292 30.2326 10.7101 30.1562 10.899 30.1562H17.0548C17.4414 30.1562 17.7548 30.4697 17.7548 30.8562C17.7548 31.2428 17.4414 31.5562 17.0548 31.5562H11.1944L6.5578 36.3183H13.3713C13.7579 36.3183 14.0713 36.6317 14.0713 37.0183C14.0713 37.4049 13.7579 37.7183 13.3713 37.7183H4.89924C4.61781 37.7183 4.36375 37.5498 4.25432 37.2905C4.14489 37.0312 4.20138 36.7316 4.3977 36.53L10.3975 30.3679Z" fill="#000091"/>
<path d="M13.9947 37.0189C13.9947 37.3637 13.7152 37.6432 13.3704 37.6432C13.0256 37.6432 12.7461 37.3637 12.7461 37.0189C12.7461 36.6741 13.0256 36.3945 13.3704 36.3945C13.7152 36.3945 13.9947 36.6741 13.9947 37.0189Z" fill="#000091"/>
<path d="M13.9947 37.0189C13.9947 37.3637 13.7152 37.6432 13.3704 37.6432C13.0256 37.6432 12.7461 37.3637 12.7461 37.0189C12.7461 36.6741 13.0256 36.3945 13.3704 36.3945C13.7152 36.3945 13.9947 36.6741 13.9947 37.0189Z" fill="#000091"/>
<path d="M13.9947 37.0189C13.9947 37.3637 13.7152 37.6432 13.3704 37.6432C13.0256 37.6432 12.7461 37.3637 12.7461 37.0189C12.7461 36.6741 13.0256 36.3945 13.3704 36.3945C13.7152 36.3945 13.9947 36.6741 13.9947 37.0189Z" fill="#000091"/>
<path d="M13.9947 37.0189C13.9947 37.3637 13.7152 37.6432 13.3704 37.6432C13.0256 37.6432 12.7461 37.3637 12.7461 37.0189C12.7461 36.6741 13.0256 36.3945 13.3704 36.3945C13.7152 36.3945 13.9947 36.6741 13.9947 37.0189Z" fill="#000091"/>
<path d="M13.9947 37.0189C13.9947 37.3637 13.7152 37.6432 13.3704 37.6432C13.0256 37.6432 12.7461 37.3637 12.7461 37.0189C12.7461 36.6741 13.0256 36.3945 13.3704 36.3945C13.7152 36.3945 13.9947 36.6741 13.9947 37.0189Z" fill="#000091"/>
<path fill-rule="evenodd" clip-rule="evenodd" d="M15.75 37.0164C15.75 36.6298 16.0634 36.3164 16.45 36.3164H17.2179C17.6045 36.3164 17.9179 36.6298 17.9179 37.0164C17.9179 37.403 17.6045 37.7164 17.2179 37.7164H16.45C16.0634 37.7164 15.75 37.403 15.75 37.0164Z" fill="#000091"/>
<path fill-rule="evenodd" clip-rule="evenodd" d="M37.918 30.8562C37.918 30.4697 38.2314 30.1562 38.618 30.1562H44.7738C44.9563 30.1562 45.1316 30.2275 45.2623 30.3549L51.5867 36.517C51.7907 36.7157 51.8539 37.0182 51.7467 37.282C51.6394 37.5458 51.383 37.7183 51.0982 37.7183H38.7803C38.3937 37.7183 38.0803 37.4049 38.0803 37.0183C38.0803 36.6317 38.3937 36.3183 38.7803 36.3183H49.3767L44.4892 31.5562H38.618C38.2314 31.5562 37.918 31.2428 37.918 30.8562Z" fill="#000091"/>
<path fill-rule="evenodd" clip-rule="evenodd" d="M13.4375 12.3758C13.4375 11.9892 13.7509 11.6758 14.1375 11.6758H32.6175C33.0041 11.6758 33.3175 11.9892 33.3175 12.3758C33.3175 12.7624 33.0041 13.0758 32.6175 13.0758H14.1375C13.7509 13.0758 13.4375 12.7624 13.4375 12.3758Z" fill="#000091"/>
<path fill-rule="evenodd" clip-rule="evenodd" d="M13.4375 15.4617C13.4375 15.0751 13.7509 14.7617 14.1375 14.7617H20.2996C20.6862 14.7617 20.9996 15.0751 20.9996 15.4617C20.9996 15.8483 20.6862 16.1617 20.2996 16.1617H14.1375C13.7509 16.1617 13.4375 15.8483 13.4375 15.4617Z" fill="#000091"/>
<path fill-rule="evenodd" clip-rule="evenodd" d="M13.4375 18.5398C13.4375 18.1532 13.7509 17.8398 14.1375 17.8398H17.2154C17.602 17.8398 17.9154 18.1532 17.9154 18.5398C17.9154 18.9264 17.602 19.2398 17.2154 19.2398H14.1375C13.7509 19.2398 13.4375 18.9264 13.4375 18.5398Z" fill="#000091"/>
</svg>
