<svg width="56" height="56" viewBox="0 0 56 56" fill="none" xmlns="http://www.w3.org/2000/svg">
<path fill-rule="evenodd" clip-rule="evenodd" d="M53.8992 39.2008C53.5132 39.2008 53.1992 38.8868 53.1992 38.5008C53.1992 38.1148 53.5132 37.8008 53.8992 37.8008C54.2852 37.8008 54.5992 38.1148 54.5992 38.5008C54.5992 38.8868 54.2852 39.2008 53.8992 39.2008Z" fill="#ECECFE"/>
<path fill-rule="evenodd" clip-rule="evenodd" d="M3.49687 41.9977C3.11089 41.9977 2.79688 41.6836 2.79688 41.2977C2.79688 40.9116 3.11089 40.5977 3.49687 40.5977C3.88285 40.5977 4.19687 40.9116 4.19687 41.2977C4.19687 41.6836 3.88285 41.9977 3.49687 41.9977Z" fill="#ECECFE"/>
<path fill-rule="evenodd" clip-rule="evenodd" d="M52.4969 15.4C52.1109 15.4 51.7969 15.086 51.7969 14.7C51.7969 14.314 52.1109 14 52.4969 14C52.8829 14 53.1969 14.314 53.1969 14.7C53.1969 15.086 52.8829 15.4 52.4969 15.4Z" fill="#ECECFE"/>
<path fill-rule="evenodd" clip-rule="evenodd" d="M2.09844 18.2008C1.71246 18.2008 1.39844 17.8868 1.39844 17.5008C1.39844 17.1148 1.71246 16.8008 2.09844 16.8008C2.48442 16.8008 2.79844 17.1148 2.79844 17.5008C2.79844 17.8868 2.48442 18.2008 2.09844 18.2008Z" fill="#ECECFE"/>
<path fill-rule="evenodd" clip-rule="evenodd" d="M11.8992 5.59922C11.5132 5.59922 11.1992 5.2852 11.1992 4.89922C11.1992 4.51321 11.5132 4.19922 11.8992 4.19922C12.2852 4.19922 12.5992 4.51321 12.5992 4.89922C12.5992 5.2852 12.2852 5.59922 11.8992 5.59922Z" fill="#ECECFE"/>
<path fill-rule="evenodd" clip-rule="evenodd" d="M38.4984 33.6016C43.5242 33.6016 47.5984 37.6758 47.5984 42.7016C47.5984 47.7273 43.5242 51.8016 38.4984 51.8016C33.4726 51.8016 29.3984 47.7273 29.3984 42.7016C29.3984 37.6758 33.4726 33.6016 38.4984 33.6016ZM38.4984 35.0016C34.2458 35.0016 30.7984 38.449 30.7984 42.7016C30.7984 46.9542 34.2458 50.4016 38.4984 50.4016C42.751 50.4016 46.1984 46.9542 46.1984 42.7016C46.1984 38.449 42.751 35.0016 38.4984 35.0016ZM38.4984 37.8016C38.8574 37.8016 39.1533 38.0718 39.1937 38.4199L39.1984 38.5016V42.0016H42.6984C43.085 42.0016 43.3984 42.315 43.3984 42.7016C43.3984 43.0605 43.1282 43.3564 42.7801 43.3968L42.6984 43.4016H39.1984V46.9016C39.1984 47.2882 38.885 47.6016 38.4984 47.6016C38.1395 47.6016 37.8436 47.3313 37.8031 46.9832L37.7984 46.9016V43.4016H34.2984C33.9118 43.4016 33.5984 43.0882 33.5984 42.7016C33.5984 42.3426 33.8687 42.0467 34.2168 42.0063L34.2984 42.0016H37.7984V38.5016C37.7984 38.115 38.1118 37.8016 38.4984 37.8016ZM30.0984 21.0016C30.485 21.0016 30.7984 21.315 30.7984 21.7016C30.7984 22.0605 30.5282 22.3564 30.1801 22.3969L30.0984 22.4016H16.0984C15.7118 22.4016 15.3984 22.0882 15.3984 21.7016C15.3984 21.3426 15.6687 21.0467 16.0168 21.0063L16.0984 21.0016H30.0984ZM34.2984 16.8016C34.685 16.8016 34.9984 17.115 34.9984 17.5016C34.9984 17.8605 34.7282 18.1564 34.3801 18.1969L34.2984 18.2016H16.0984C15.7118 18.2016 15.3984 17.8882 15.3984 17.5016C15.3984 17.1426 15.6687 16.8467 16.0168 16.8063L16.0984 16.8016H34.2984ZM27.2984 12.6016C27.685 12.6016 27.9984 12.915 27.9984 13.3016C27.9984 13.6605 27.7282 13.9564 27.3801 13.9969L27.2984 14.0016H16.0984C15.7118 14.0016 15.3984 13.6882 15.3984 13.3016C15.3984 12.9426 15.6687 12.6467 16.0168 12.6063L16.0984 12.6016H27.2984Z" fill="#E1000F"/>
<path fill-rule="evenodd" clip-rule="evenodd" d="M38.4992 8.39844C38.8582 8.39844 39.1541 8.66867 39.1945 9.0168L39.1992 9.09844V31.4984C39.1992 31.885 38.8858 32.1984 38.4992 32.1984C38.1402 32.1984 37.8444 31.9282 37.8039 31.5801L37.7992 31.4984V9.79844H12.5992V46.1984H27.2992C27.6582 46.1984 27.9541 46.4687 27.9945 46.8168L27.9992 46.8984C27.9992 47.2574 27.729 47.5533 27.3809 47.5937L27.2992 47.5984H11.8992C11.5402 47.5984 11.2444 47.3282 11.2039 46.9801L11.1992 46.8984V9.09844C11.1992 8.73945 11.4694 8.44358 11.8176 8.40315L11.8992 8.39844H38.4992ZM23.0992 41.9984C23.4858 41.9984 23.7992 42.3118 23.7992 42.6984C23.7992 43.0574 23.529 43.3533 23.1809 43.3937L23.0992 43.3984H16.0992C15.7126 43.3984 15.3992 43.085 15.3992 42.6984C15.3992 42.3395 15.6694 42.0436 16.0176 42.0031L16.0992 41.9984H23.0992ZM25.8992 37.7984C26.2858 37.7984 26.5992 38.1118 26.5992 38.4984C26.5992 38.8574 26.329 39.1533 25.9809 39.1937L25.8992 39.1984H16.0992C15.7126 39.1984 15.3992 38.885 15.3992 38.4984C15.3992 38.1395 15.6694 37.8436 16.0176 37.8031L16.0992 37.7984H25.8992ZM28.6992 33.5984C29.0858 33.5984 29.3992 33.9118 29.3992 34.2984C29.3992 34.6574 29.129 34.9533 28.7809 34.9937L28.6992 34.9984H16.0992C15.7126 34.9984 15.3992 34.685 15.3992 34.2984C15.3992 33.9394 15.6694 33.6436 16.0176 33.6031L16.0992 33.5984H28.6992ZM31.4992 29.3984C31.8858 29.3984 32.1992 29.7118 32.1992 30.0984C32.1992 30.4574 31.929 30.7533 31.5809 30.7937L31.4992 30.7984H16.0992C15.7126 30.7984 15.3992 30.485 15.3992 30.0984C15.3992 29.7395 15.6694 29.4436 16.0176 29.4031L16.0992 29.3984H31.4992ZM34.2992 25.1984C34.6858 25.1984 34.9992 25.5118 34.9992 25.8984C34.9992 26.2574 34.729 26.5533 34.3809 26.5937L34.2992 26.5984H16.0992C15.7126 26.5984 15.3992 26.285 15.3992 25.8984C15.3992 25.5395 15.6694 25.2436 16.0176 25.2031L16.0992 25.1984H34.2992ZM41.2992 8.39844C41.6582 8.39844 41.9541 8.66867 41.9945 9.0168L41.9992 9.09844V31.4984C41.9992 31.885 41.6858 32.1984 41.2992 32.1984C40.9402 32.1984 40.6444 31.9282 40.6039 31.5801L40.5992 31.4984V9.09844C40.5992 8.71184 40.9126 8.39844 41.2992 8.39844Z" fill="#000091"/>
</svg>
