<svg width="315" height="398" fill="none" xmlns="http://www.w3.org/2000/svg"><rect x=".5" y=".5" width="314" height="397" rx="4.5" fill="#fff" stroke="#ADADF9"/><path fill="#E8EDFF" d="M25.25 18.25h70.5v35.5h-70.5z"/><path stroke="#ADADF9" stroke-width=".5" d="M25.25 18.25h70.5v35.5h-70.5z"/><path d="M54.656 34.55c.004 0 .008-.006.008-.006a.486.486 0 0 0 .092-.088c-.004 0-.008 0-.012-.006-.028.03-.06.064-.088.1zM59.07 33.063l-.07.06c.04-.01.07-.02.07-.06z" fill="#fff"/><path fill-rule="evenodd" clip-rule="evenodd" d="M57.643 34.582c.127-.129.255-.265.383-.406h-.004c.24-.272.473-.533.752-.77.085-.079.166-.145.244-.2.011-.011.017-.028.023-.045.006-.017.011-.034.023-.044-.055.02-.099.054-.143.088a.582.582 0 0 1-.151.091c-.023 0-.047-.023-.023-.047.08-.058.162-.12.24-.183h-.016c-.023 0-.023-.023-.023-.047-.288-.045-.51.152-.708.328l-.013.011c-.03.016-.06 0-.082-.012-.012-.006-.022-.011-.03-.011-.175.059-.327.167-.479.276-.14.1-.281.202-.443.266v-.047c-.055.019-.109.043-.163.068-.08.036-.16.073-.244.091-.151.036-.292.031-.428.027a3.98 3.98 0 0 0-.133-.003 6.535 6.535 0 0 0-.738.13l-.08.018-.011.004a1.69 1.69 0 0 0-.43.175l-.016.008-.015.02a.524.524 0 0 1-.17.156 1.257 1.257 0 0 0-.264.198c-.036.032-.072.064-.108.093-.008.008-.023.012-.035.012a14.9 14.9 0 0 1-.364.347c-.008.008-.043.012-.07.008 0 0 .004 0 .004-.004l.012-.023.058-.094.033-.053c.01-.017.02-.035.032-.052.031-.047.063-.094.097-.137.008-.011.008-.023 0-.03a.044.044 0 0 0-.03-.013c.112-.109.243-.202.379-.284v-.004c-.016.004-.039-.008-.027-.023.011-.014.02-.03.03-.046l.008-.016.004-.01.004-.01a.04.04 0 0 0-.008-.01c-.002-.003-.005-.005-.007-.01l-.024.016a.403.403 0 0 0-.13.114c-.036.045-.073.093-.129.093-.004 0-.023 0-.035-.004-.011 0-.02-.004-.023-.008v-.003l.004-.001s.004-.004.004-.008c0 0 0-.004.004-.004a.102.102 0 0 1 .005-.01.083.083 0 0 0 .006-.01.08.08 0 0 1 .006-.009.1.1 0 0 0 .01-.017.021.021 0 0 1 .004-.008l.004-.008.011-.023.006-.01a.071.071 0 0 0 .006-.01.215.215 0 0 0 .015-.025c.005-.009.01-.018.016-.025.003-.008.007-.016.015-.024l.012-.021a.413.413 0 0 0 .011-.022c.012-.02 0-.035-.015-.039a.522.522 0 0 1 .155-.136h-.008c.053-.027.108-.058.163-.09l.097-.054a.151.151 0 0 1 .038-.031 1.391 1.391 0 0 0-.356.179s-.031.011-.039.02c0 0-.023.007-.054-.02-.004-.004-.004-.008-.004-.016.014-.027.041-.045.071-.064.022-.014.045-.029.065-.049.023 0 .042 0 .042.024.446-.35.996-.431 1.548-.512.34-.05.68-.1.997-.213l.1-.068.102-.068c.056-.024.107-.064.16-.107.053-.042.11-.086.177-.12.178-.136.313-.291.383-.521 0-.024-.023-.047-.023-.047a3.562 3.562 0 0 1-.992.748c-.343.181-.711.208-1.076.235-.137.01-.273.02-.407.038.023-.047.07-.047.112-.047 0-.056.027-.08.06-.11l.03-.026h.065c.012 0 .017-.012.023-.024.006-.012.012-.023.023-.023.047 0 .113-.024.09-.024-.036-.045-.088-.027-.145-.007-.054.019-.114.04-.17.007.021-.022.027-.05.033-.074.006-.026.012-.05.034-.062h.089c0-.047.046-.09.046-.09.202-.121.397-.227.589-.331.128-.07.254-.138.38-.21-.026 0-.048.01-.07.02-.035.017-.068.032-.109.003.024 0 .024-.016.024-.033s0-.033.023-.033c.145-.039.275-.102.407-.166.093-.045.188-.091.29-.13a.306.306 0 0 0-.086.016c-.053.015-.103.03-.162-.016a.232.232 0 0 0 .04-.027c.025-.02.05-.04.096-.04v-.066c0-.023.023-.023.046-.023-.023 0-.046-.023-.046-.023.012-.025.036-.03.063-.036a.14.14 0 0 0 .072-.03c-.023 0-.065 0-.065-.024.065-.09.178-.113.29-.136-.012-.024-.034-.024-.053-.024-.02 0-.036 0-.036-.023s.023-.023.046-.023h-.046c-.036-.019-.03-.052-.026-.074l.003-.016c.09-.107.12-.234.15-.36.015-.061.03-.123.051-.182-.023 0-.046 0-.046-.023-.218.242-.563.333-.891.42l-.031.009h-.113a.444.444 0 0 1-.383-.024c-.053-.028-.092-.063-.133-.1a1.12 1.12 0 0 0-.092-.079 2.773 2.773 0 0 0-.561-.273 5.04 5.04 0 0 0-1.732-.25c.164-.089.337-.125.513-.16a3.44 3.44 0 0 0 .445-.117c.32-.098.633-.194.975-.174a.377.377 0 0 0-.155-.005c-.025.003-.049.005-.07.005-.259-.02-.52.038-.793.098l-.175.038a3.23 3.23 0 0 0-.31.087c-.112.035-.225.07-.345.093a.512.512 0 0 0-.134.078c-.065.047-.128.093-.226.081v-.07c.225-.273.496-.541.856-.565.348-.056.677-.016 1.02.026l.173.021c.281.023.544.085.827.153l.03.007c.061 0 .096.054.13.107.027.043.054.085.094.095.055.02.11.023.165.026.08.006.161.01.242.064a.271.271 0 0 0-.006-.046c-.005-.03-.01-.06.006-.09.05-.05.107-.037.163-.024.044.01.088.02.127 0 .123-.076.008-.193-.107-.31-.056-.057-.112-.113-.14-.165 0-.023.023-.047.023-.047.05.046.098.093.145.14.117.117.232.231.393.312.112.047.383.113.337-.023-.08-.177-.216-.33-.353-.485-.056-.063-.113-.127-.166-.193v-.09c-.035 0-.044-.013-.055-.03a.138.138 0 0 0-.011-.017v-.09c-.057-.029-.07-.076-.082-.124-.008-.027-.015-.054-.03-.078-.04-.063-.042-.14-.045-.22a.656.656 0 0 0-.025-.189 2.314 2.314 0 0 1-.09-.386c-.024-.14-.052-.272-.08-.403-.047-.23-.093-.452-.12-.684-.036-.33.13-.61.301-.895.05-.085.102-.17.148-.258.159-.273.337-.541.631-.724.064-.267.24-.488.413-.709l.013-.016c.172-.214.459-.345.67-.441l.024-.011c.313-.14.596-.23.6-.23H44v11.996h11.04c.295-.214.588-.35.938-.51a17.12 17.12 0 0 0 .658-.315c.315-.155.817-.402 1.007-.59zm-3.503-1.619c-.044.005-.09.01-.073-.026.016-.079.097-.102.176-.125.033-.01.067-.02.095-.034l.012-.007.01-.005c.044-.023.097-.051.136-.035.027.038.06.048.092.057.024.008.047.014.067.033-.084.084-.181.092-.28.1a.595.595 0 0 0-.196.04c-.011 0-.025 0-.04.002zm-3.427-.548c0 .024.023.047.023.047.542-.612 1.034-1.134 1.731-1.566.019-.008.012.002.003.015-.014.02-.033.046.02.032.231-.053.335-.25.436-.443.026-.05.052-.1.08-.146.105-.172.256-.282.407-.393.11-.08.22-.16.313-.265 0 .023 0 .047-.023.07.023.024.046.024.07.024.04-.031.085-.044.128-.056.054-.016.106-.03.143-.08-.178-.071-.407-.094-.585-.024-.473.226-.875.588-1.259.997-.232.246-.473.475-.767.635a6.924 6.924 0 0 1-.72 1.153zm1.89-1.449c-.011.025-.024.037-.035.05-.01.01-.02.021-.03.04a.181.181 0 0 1-.09.089c-.022 0-.045 0-.045-.023.023-.09.089-.179.178-.202.023.004.023.027.023.046zm.991 3.46a.289.289 0 0 0 .054-.066c.02-.047-.1-.035-.12-.023a.258.258 0 0 0-.042.045l-.004.005a.635.635 0 0 1-.054.054l-.039.036c-.054.055-.108.11-.166.16-.039.035.085.05.112.027.03-.023.058-.05.085-.078.01 0 .02-.002.028-.003h.007c.064-.022.112-.067.158-.11l.012-.012c.016-.015-.004-.03-.03-.035zm-.35-.253h-.001v.004a5.225 5.225 0 0 0-.071.05c-.06.042-.12.085-.185.121a2.949 2.949 0 0 1-.188.095 5.825 5.825 0 0 0-.11.053s0-.004-.004-.004c-.008-.011-.024-.015-.039-.007a.999.999 0 0 0-.225.175.116.116 0 0 0-.03.031l-.035.035v.004c-.016.016-.032.031-.05.055a.104.104 0 0 0-.01.012c-.007.007-.012.014-.022.019-.015.008-.054.008-.05-.016v-.004a.18.18 0 0 1-.039.02.152.152 0 0 1-.017.01.146.146 0 0 0-.018.01c-.004-.005-.011-.005-.015-.005s-.012 0-.016.004l-.027.023a1.51 1.51 0 0 0-.186.188s0 .004-.004.004c0 .002 0 .003-.002.003l-.002.004-.007.008-.003.004c-.002.002-.003.004-.005.004l-.004.004a.083.083 0 0 1-.015.023.03.03 0 0 1-.02.008c-.004-.004-.008-.008-.008-.012l-.003-.005-.004-.006-.01-.018a.17.17 0 0 0-.01-.017v-.004c0-.002 0-.004-.002-.006a.013.013 0 0 1-.002-.006l.07-.082.004-.004a.188.188 0 0 0 .012-.013l.011-.014.02-.023a.445.445 0 0 0 .03-.043c.024-.031.047-.063.07-.098v-.004c.004-.003.008-.007.008-.015a.315.315 0 0 0 .031-.047l.023-.047v-.003l.004-.004.002-.004.002-.004.012-.027a.678.678 0 0 0 .011-.028v-.004l.004-.015.004-.012.004-.012v-.003a.123.123 0 0 0 .004-.018c0-.006.002-.012.004-.018 0-.003 0-.011-.004-.015a.65.65 0 0 1 .089-.121l-.006.002a.024.024 0 0 1-.003.002h-.003a.296.296 0 0 0-.047.04c-.012.012-.024.024-.038.034-.023.02-.07-.012-.039-.035.02-.016.035-.031.05-.047 0 0 0-.004.005-.004l.045-.045c.022-.025.045-.049.07-.068.028-.02.047-.035.07-.054.004-.004.008-.008.012-.008a.668.668 0 0 1 .05-.059s.004 0 .004-.003c.133-.13.32-.175.511-.221.12-.03.242-.06.353-.11.063-.027.133-.016.202-.006.054.008.109.016.158.005.066 0 .136 0 .202.047-.153.082-.3.175-.444.267l-.126.08h-.002zm.484-1.588c-.018.002-.03.004-.02.014.066.066.202.043.295-.008.066-.047.135-.047.224-.047.024 0 .024-.043.024-.066.065.023.112.023.178.023.538-.113 1.057-.226 1.553-.475-.502-.388-1.12-.56-1.726-.73l-.3-.084c.022 0 .044.007.066.014.044.015.089.03.136-.014a.374.374 0 0 0-.198-.068.421.421 0 0 1-.163-.045c.006 0 .012 0 .019.002.023.005.052.01.07-.026-.117-.059-.235-.079-.354-.1a2.24 2.24 0 0 1-.184-.036.222.222 0 0 0 .182-.226c0-.023-.046-.023-.07-.023-.267.136-.449.385-.561.677.1.06.21.053.317.046.06-.003.12-.007.178.001-.05.048-.124.062-.194.074l-.077.016c-.07.015-.135.066-.112.113a.08.08 0 0 0 .05.031.323.323 0 0 0-.14.082c.065.05.13.04.195.03.026-.003.052-.007.077-.007 0 .029.019.038.038.048.01.005.02.01.028.018a.405.405 0 0 0-.225.203.416.416 0 0 1-.13.155c-.034.03-.068.058-.094.094v.07a4.256 4.256 0 0 1-.228.184c-.156.12-.307.237-.427.405.023 0 .023.023.023.047a.312.312 0 0 1-.08.076c-.034.024-.066.048-.079.083 0 .024 0 .047.024.047.142-.047.265-.126.385-.204.11-.07.217-.139.335-.182.096-.023.18-.066.262-.11.07-.035.138-.07.21-.092.057-.012.119-.029.18-.045.063-.017.125-.033.18-.045 0 .023 0 .047.024.047h.178c-.01.026-.045.03-.069.033z" fill="#fff"/><path d="M77 24H64.096s.024.004.121.055c.106.054.242.128.324.171.168.086.328.195.433.363.047.066.113.203.07.293-.047.113-.07.296-.183.34-.137.07-.316.07-.476.046-.09 0-.18-.024-.273-.047.34.137.66.297.885.613.024.046.114.066.203.066.024 0 .024.047.024.066-.047.047-.09.07-.067.137h.067c.113-.047.09-.273.25-.203.112.066.16.226.089.34-.09.089-.18.16-.273.226a.191.191 0 0 0 0 .16c.066.09.09.179.113.273.07.16.09.339.16.499.09.34.18.679.16 1.022 0 .18-.09.34-.023.523.046.18.16.316.25.476.089.136.178.226.249.363.136.226.386.452.273.725-.066.16-.316.137-.476.226-.137.114-.023.297.047.41.113.203-.137.34-.297.41.047.07.137.046.16.09.024.113.137.179.066.296-.09.136-.362.203-.226.41.09.16.032.335-.023.499-.066.203-.25.292-.41.34a.894.894 0 0 1-.429.023c-.047-.024-.09-.047-.136-.047-.386-.047-.773-.156-1.155-.156-.113.023-.226.043-.316.09a1.832 1.832 0 0 0-.273.241l-.004.004c-.015.02-.035.035-.05.055-.008.012-.02.023-.028.035-.008.008-.011.016-.02.023a2.395 2.395 0 0 0-.179.262c-.004.008-.008.011-.011.015-.004.012-.012.02-.02.032a2.238 2.238 0 0 0-.172.417c-.156.519-.085.964.024 1.073.031.031.749.253 1.248.476.234.105.398.183.534.269h12.67V24H77z" fill="#fff"/><path d="M64.864 28.373c.09.024.225.024.225.07-.046.18-.315.226-.451.41h-.07c-.066.046-.047.16-.113.16-.066-.024-.136 0-.202.022.09.09.202.16.338.137.024 0 .066.047.066.09 0 0 .024 0 .047-.024.023 0 .047 0 .047.024v.09c-.066.089-.183.046-.273.065a.986.986 0 0 0 .522 0c.136-.046 0-.272.09-.385-.047 0 0-.07-.047-.07.046-.047.09-.113.136-.137.046 0 .113-.023.136-.07 0-.047-.09-.066-.07-.113.136-.09.249-.226.202-.362-.023-.07-.202-.07-.315-.113-.113-.043-.249 0-.385.023-.113 0-.226.07-.339.09-.16.046-.295.136-.428.226.16-.067.316-.09.498-.137.137.004.25-.027.386.004z" fill="#ECECFE"/><path d="M46.08 46v-7h1.14v5.95h2.76V46h-3.9zm8.18-7.2c2.19 0 3.69 1.7 3.69 3.7s-1.5 3.7-3.69 3.7c-2.2 0-3.69-1.7-3.69-3.7s1.49-3.7 3.69-3.7zm0 6.32c1.46 0 2.5-1.16 2.5-2.62 0-1.47-1.04-2.62-2.5-2.62s-2.51 1.16-2.51 2.62c0 1.47 1.05 2.62 2.51 2.62zm8.655 0c.78 0 1.45-.3 1.9-.78v-1.41h-1.93v-.99h3.08v2.83c-.66.87-1.74 1.43-3.05 1.43-2.26 0-3.79-1.7-3.79-3.7s1.49-3.7 3.69-3.7c1.27 0 2.3.57 2.95 1.43l-.92.71a2.435 2.435 0 0 0-2.03-1.06c-1.46 0-2.51 1.16-2.51 2.62 0 1.47 1.09 2.62 2.61 2.62zm8.046-6.32c2.19 0 3.69 1.7 3.69 3.7s-1.5 3.7-3.69 3.7c-2.2 0-3.69-1.7-3.69-3.7s1.49-3.7 3.69-3.7zm0 6.32c1.46 0 2.5-1.16 2.5-2.62 0-1.47-1.04-2.62-2.5-2.62s-2.51 1.16-2.51 2.62c0 1.47 1.05 2.62 2.51 2.62z" fill="#7879F1"/><rect x="201" y="20" width="89" height="10" rx="1" fill="#E3E3FD"/><rect x="201" y="33" width="89" height="10" rx="1" fill="#E3E3FD"/><rect x="91" y="76" width="132" height="10" rx="1" fill="#E3E3FD"/><rect x="91" y="89" width="132" height="10" rx="1" fill="#E3E3FD"/><rect x="106" y="182" width="102" height="10" rx="1" fill="#E3E3FD"/><rect x="106" y="117" width="102" height="10" rx="1" fill="#E3E3FD"/><rect x="184" y="362" width="102" height="10" rx="1" fill="#E3E3FD"/><rect x="106" y="249" width="102" height="10" rx="1" fill="#E3E3FD"/><rect x="28" y="139" width="190" height="10" rx="1" fill="#E8EDFF"/><rect x="28" y="153" width="168" height="10" rx="1" fill="#E8EDFF"/><rect x="28" y="266" width="259" height="10" rx="1" fill="#E8EDFF"/><rect x="28" y="204" width="259" height="10" rx="1" fill="#E8EDFF"/><rect x="28" y="218" width="168" height="10" rx="1" fill="#E8EDFF"/><rect x="184" y="311" width="39" height="10" rx="1" fill="#E8EDFF"/><rect x="184" y="324" width="76" height="10" rx="1" fill="#E8EDFF"/><rect x="184" y="337" width="76" height="10" rx="1" fill="#E8EDFF"/></svg>