<svg width="56" height="56" viewBox="0 0 56 56" xmlns="http://www.w3.org/2000/svg">
    <g id="artwork-major" class="fr-artwork-major">
        <path fill-rule="evenodd" clip-rule="evenodd" d="M52.5008 43.4C52.1148 43.4 51.8008 43.086 51.8008 42.7C51.8008 42.314 52.1148 42 52.5008 42C52.8868 42 53.2008 42.314 53.2008 42.7C53.2008 43.086 52.8868 43.4 52.5008 43.4Z" fill="#ECECFE"/>
        <path fill-rule="evenodd" clip-rule="evenodd" d="M38.5008 2.79844C38.1148 2.79844 37.8008 2.48442 37.8008 2.09844C37.8008 1.71242 38.1148 1.39844 38.5008 1.39844C38.8868 1.39844 39.2008 1.71242 39.2008 2.09844C39.2008 2.48442 38.8868 2.79844 38.5008 2.79844Z" fill="#ECECFE"/>
        <path fill-rule="evenodd" clip-rule="evenodd" d="M2.09844 37.7984C1.71246 37.7984 1.39844 37.4844 1.39844 37.0984C1.39844 36.7124 1.71246 36.3984 2.09844 36.3984C2.48442 36.3984 2.79844 36.7124 2.79844 37.0984C2.79844 37.4844 2.48442 37.7984 2.09844 37.7984Z" fill="#ECECFE"/>
        <path fill-rule="evenodd" clip-rule="evenodd" d="M34.3008 37.8008C35.6207 37.8008 36.4008 38.5808 36.4008 39.9008C36.4008 39.958 36.3938 40.015 36.3799 40.0706C36.0261 41.4855 34.4533 42.4051 31.6466 42.9122L31.1931 42.9888C31.0386 43.0132 30.8806 43.0365 30.7192 43.0587L30.2247 43.1218C30.1406 43.1318 30.0556 43.1415 29.9698 43.1509L29.4445 43.2041L28.8986 43.2508L28.3322 43.291L27.7452 43.3249C27.6456 43.33 27.5452 43.3348 27.444 43.3394L26.826 43.3638L26.1875 43.382L25.5283 43.394L24.5008 43.4008C24.1142 43.4008 23.8008 43.0874 23.8008 42.7008C23.8008 42.3142 24.1142 42.0008 24.5008 42.0008L25.1658 41.9978C25.2748 41.9967 25.383 41.9955 25.4902 41.994L26.123 41.982L26.7342 41.9642L27.3239 41.9405L27.892 41.9112L28.4386 41.8763L28.9636 41.8359L29.467 41.7901C29.5491 41.782 29.6303 41.7737 29.7106 41.7651L30.1816 41.7113C30.4117 41.6831 30.6336 41.6529 30.8475 41.6209L31.2643 41.5542L31.6595 41.4826L32.033 41.4061C33.7253 41.0377 34.7085 40.5123 34.9754 39.8703L34.9987 39.8063L34.994 39.7238C34.9616 39.347 34.806 39.218 34.3932 39.2024L34.3008 39.2008C33.5736 39.2008 32.8078 39.5837 31.9958 40.3958C31.574 40.8176 30.8658 40.5501 30.805 39.9803L30.8008 39.9008C30.8008 39.354 30.6475 39.2008 30.1008 39.2008C29.3736 39.2008 28.6078 39.5837 27.7958 40.3958C27.5224 40.6691 27.0792 40.6691 26.8058 40.3958C26.5324 40.1224 26.5324 39.6792 26.8058 39.4058C27.8604 38.3512 28.9613 37.8008 30.1008 37.8008C30.9022 37.8008 31.5046 38.0883 31.8542 38.6097L31.8816 38.6541L32.0185 38.559C32.7025 38.097 33.4041 37.8419 34.1212 37.8053L34.3008 37.8008Z" fill="#E1000F"/>
        <path d="M28.7016 12.5984C29.0882 12.5984 29.4016 12.9118 29.4016 13.2984C29.4016 13.6574 29.1313 13.9533 28.7832 13.9937L28.7016 13.9984H17.5016C17.115 13.9984 16.8016 13.685 16.8016 13.2984C16.8016 12.9395 17.0718 12.6436 17.4199 12.6031L17.5016 12.5984H28.7016Z" fill="#000091"/>
        <path d="M36.4016 17.4984C36.4016 17.1118 36.0882 16.7984 35.7016 16.7984H17.5016L17.4199 16.8031C17.0718 16.8436 16.8016 17.1395 16.8016 17.4984C16.8016 17.885 17.115 18.1984 17.5016 18.1984H35.7016L35.7832 18.1937C36.1313 18.1533 36.4016 17.8574 36.4016 17.4984Z" fill="#000091"/>
        <path d="M31.5016 20.9984C31.8882 20.9984 32.2016 21.3118 32.2016 21.6984C32.2016 22.0574 31.9313 22.3533 31.5832 22.3937L31.5016 22.3984H17.5016C17.115 22.3984 16.8016 22.085 16.8016 21.6984C16.8016 21.3395 17.0718 21.0436 17.4199 21.0031L17.5016 20.9984H31.5016Z" fill="#000091"/>
        <path d="M36.4016 25.8984C36.4016 25.5118 36.0882 25.1984 35.7016 25.1984H17.5016L17.4199 25.2031C17.0718 25.2436 16.8016 25.5395 16.8016 25.8984C16.8016 26.285 17.115 26.5984 17.5016 26.5984H35.7016L35.7832 26.5937C36.1313 26.5533 36.4016 26.2574 36.4016 25.8984Z" fill="#000091"/>
        <path d="M32.2016 30.0984C32.2016 29.7118 31.8882 29.3984 31.5016 29.3984H17.5016L17.4199 29.4031C17.0718 29.4436 16.8016 29.7395 16.8016 30.0984C16.8016 30.485 17.115 30.7984 17.5016 30.7984H31.5016L31.5832 30.7937C31.9313 30.7533 32.2016 30.4574 32.2016 30.0984Z" fill="#000091"/>
        <path fill-rule="evenodd" clip-rule="evenodd" d="M13.3016 8.39844H39.9016C40.2882 8.39844 40.6016 8.71184 40.6016 9.09844V46.8984C40.6016 47.285 40.2882 47.5984 39.9016 47.5984H13.3016C12.915 47.5984 12.6016 47.285 12.6016 46.8984V9.09844C12.6016 8.71184 12.915 8.39844 13.3016 8.39844ZM39.2016 46.1984V9.79844H14.0016V46.1984H39.2016Z" fill="#000091"/>
        <path d="M42.7016 13.9984C43.0606 13.9984 43.3564 14.2687 43.3969 14.6168L43.4016 14.6984V49.6984C43.4016 50.0574 43.1313 50.3533 42.7832 50.3937L42.7016 50.3984H18.9016C18.515 50.3984 18.2016 50.085 18.2016 49.6984C18.2016 49.3395 18.4718 49.0436 18.8199 49.0031L18.9016 48.9984H42.0016V14.6984C42.0016 14.3395 42.2718 14.0436 42.6199 14.0031L42.7016 13.9984Z" fill="#000091"/>
    </g>
</svg>
