<svg width="56" height="56" viewBox="0 0 56 56" xmlns="http://www.w3.org/2000/svg">
    <g id="artwork-major" class="fr-artwork-major">
        <path fill-rule="evenodd" clip-rule="evenodd" d="M47.5984 9.09922C47.2125 9.09922 46.8984 8.7852 46.8984 8.39922C46.8984 8.01321 47.2125 7.69922 47.5984 7.69922C47.9844 7.69922 48.2984 8.01321 48.2984 8.39922C48.2984 8.7852 47.9844 9.09922 47.5984 9.09922Z" fill="#ECECFE"/>
        <path fill-rule="evenodd" clip-rule="evenodd" d="M21.0008 56.0016C20.6148 56.0016 20.3008 55.6875 20.3008 55.3016C20.3008 54.9155 20.6148 54.6016 21.0008 54.6016C21.3868 54.6016 21.7008 54.9155 21.7008 55.3016C21.7008 55.6875 21.3868 56.0016 21.0008 56.0016Z" fill="#ECECFE"/>
        <path fill-rule="evenodd" clip-rule="evenodd" d="M10.5008 7.00156C10.1148 7.00156 9.80078 6.68754 9.80078 6.30156C9.80078 5.91555 10.1148 5.60156 10.5008 5.60156C10.8868 5.60156 11.2008 5.91555 11.2008 6.30156C11.2008 6.68754 10.8868 7.00156 10.5008 7.00156Z" fill="#ECECFE"/>
        <path fill-rule="evenodd" clip-rule="evenodd" d="M37.7985 24.5C31.2263 24.5 25.8985 29.8278 25.8985 36.4C25.8985 36.4446 25.8987 36.4891 25.8992 36.5336C25.8726 38.8528 26.5525 41.1902 27.9673 43.2191C30.118 46.3036 33.567 48.1014 37.1861 48.2845C37.3437 48.2925 37.502 48.2974 37.6612 48.2992C39.2266 48.3171 40.8144 48.0323 42.3344 47.4186C42.3789 47.4006 42.4209 47.3783 42.46 47.3523C44.1722 46.6226 45.6784 45.5032 46.8672 44.1055C46.9516 44.063 47.0311 44.0005 47.1004 43.9155C48.8273 41.7983 49.7271 39.1832 49.6978 36.529C49.6982 36.4861 49.6985 36.4431 49.6985 36.4C49.6985 29.8278 44.3706 24.5 37.7985 24.5ZM41.1739 26.4543C40.1145 26.0949 38.9793 25.9 37.7985 25.9C34.9576 25.9 32.3803 27.0282 30.49 28.861C30.6136 29.018 30.717 29.189 30.7971 29.3689C30.8689 29.5262 30.9281 29.6879 30.9759 29.8547C31.0706 30.1853 31.1146 30.4654 31.1334 30.8423L31.1432 31.1455C31.1451 31.2542 31.1459 31.3711 31.1459 31.4988L31.1463 31.6388L31.1504 31.8753L31.1594 32.0584L31.1741 32.1971C31.1859 32.2768 31.2021 32.333 31.2235 32.3776C31.2269 32.3848 31.2436 32.3955 31.2736 32.4092L31.3513 32.4406L31.4648 32.4793L31.6142 32.5245L31.9063 32.6026L32.2805 32.6907L33.1331 32.8732L33.4319 32.9477C33.9574 33.0898 34.3459 33.3276 34.7964 33.7573L34.8907 33.8492L34.8832 33.8335C34.4658 32.8649 34.4088 31.5967 34.6719 30.7502L34.7216 30.6053C35.0837 29.6442 35.8969 29.2713 37.0115 29.2455C37.0457 29.2447 37.0793 29.2442 37.1127 29.244L37.3163 29.2459C37.3513 29.2467 37.3872 29.2479 37.4246 29.2493L38.1824 29.2913L38.4009 29.2979L38.5062 29.2959L38.5905 29.2891C38.7087 29.2746 38.8514 29.1334 39.0112 28.8205L39.2486 28.2883L39.3368 28.1022C39.379 28.0169 39.4169 27.9473 39.4444 27.9105C39.6759 27.6007 40.0427 27.2726 40.5811 26.8743L40.8921 26.6498L41.1739 26.4543ZM38.1424 46.8945C38.0282 46.8981 37.9135 46.9 37.7985 46.9C32.0444 46.9 27.3714 42.2716 27.2993 36.5347C27.3279 34.3126 28.0961 32.11 29.5717 30.298L29.6267 30.2309L29.63 30.2401C29.6817 30.4206 29.7115 30.5886 29.7279 30.8077L29.7401 31.0462L29.7454 31.333L29.7481 31.8151C29.7574 32.3731 29.8015 32.6505 29.9618 32.9844C30.2124 33.5044 30.5812 33.7221 31.473 33.9436L31.7724 34.014L32.1095 34.0868L32.7092 34.2128L32.9014 34.257L33.0663 34.2992C33.4403 34.4002 33.7581 34.6595 34.2988 35.2632L34.6703 35.6779C34.8815 35.9059 35.0243 36.0411 35.184 36.1321C35.4176 36.2652 35.7067 36.2528 35.928 36.1002C36.1948 35.9162 36.4785 35.5045 36.6124 35.0351C36.7447 34.5714 36.7174 34.1092 36.4731 33.7632L36.4011 33.6718C35.9188 33.1155 35.7929 31.7301 36.0314 31.0998C36.1474 30.7918 36.4367 30.6592 37.0439 30.6451L37.2062 30.6442L37.4854 30.6535L38.0534 30.6867L38.275 30.6963C38.308 30.6972 38.3393 30.6979 38.3692 30.6983L38.5352 30.6966L38.6851 30.6869C38.7097 30.6846 38.7343 30.6819 38.7593 30.6789C39.4054 30.5999 39.8462 30.2011 40.1866 29.5911L40.2864 29.4001L40.3493 29.2654L40.5028 28.9111L40.5656 28.7527C40.5669 28.7484 40.5671 28.7469 40.5659 28.7485C40.6637 28.6176 40.8402 28.4514 41.0903 28.2508L41.3226 28.0705L41.5901 27.8736C41.6376 27.8394 41.6866 27.8045 41.7369 27.769L42.0561 27.5474L42.2806 27.3952L42.423 27.4613C45.1888 28.7844 47.2276 31.2315 47.982 34.1604L48.0448 34.4187C48.2054 35.1181 48.2889 35.8257 48.2977 36.5303C48.2793 38.0414 47.9417 39.4757 47.3492 40.7688C47.2443 39.8676 46.9302 39.4091 46.1241 38.9586C45.8476 38.8063 45.6287 38.6969 45.3684 38.5776L45.1639 38.4855C44.586 38.2301 44.45 38.1327 44.1406 37.6904L43.9807 37.4588C43.1929 36.2874 42.584 35.9119 41.1396 36.1351C38.5779 36.5323 37.8345 37.0243 37.6363 38.3327L37.5682 38.8007C37.561 38.8542 37.5543 38.9062 37.5481 38.9568L37.5177 39.2434C37.4427 40.1005 37.5778 40.4981 38.0818 41.0153L38.4502 41.3963L38.796 41.761L39.1189 42.1091L39.4188 42.4402L39.6955 42.7541L39.949 43.0505L40.1789 43.3291L40.3853 43.5897L40.5679 43.8318C40.5963 43.8706 40.6238 43.9087 40.6502 43.9459L40.7968 44.16C40.9314 44.3645 41.0297 44.5404 41.0911 44.6864L41.1556 44.8498C41.2999 45.238 41.3991 45.6731 41.413 46.1072L41.4132 46.2612C40.3883 46.637 39.2886 46.8576 38.1424 46.8945ZM42.7833 45.6436C43.9918 44.9905 45.0577 44.1074 45.9223 43.0528C45.97 42.7422 45.9951 42.4111 45.9951 42.0595L45.995 41.7627L45.9932 41.4846L45.9875 41.2474L45.9764 41.0465C45.9357 40.5247 45.8112 40.3875 45.4449 40.1828L45.2721 40.0895C45.0506 39.9725 44.8564 39.8808 44.5969 39.7655L44.4448 39.697C43.7613 39.3824 43.4394 39.1304 42.991 38.4893L42.7521 38.1414L42.6216 37.9567C42.3135 37.5385 42.1251 37.4379 41.6653 37.4787L41.466 37.5021L41.169 37.5476L40.6752 37.6298L40.2656 37.7069L40.0352 37.7569L39.8361 37.8068C39.2833 37.9574 39.1202 38.118 39.0498 38.3919L39.0294 38.4876L38.9805 38.81L38.9299 39.1663L38.9083 39.3524L38.8967 39.504L38.8954 39.6267C38.8999 39.7552 38.926 39.8362 38.9756 39.9103L39.024 39.9729C39.042 39.9939 39.0621 40.0152 39.0841 40.0378L39.2922 40.2521L39.6889 40.6667L40.0595 41.063L40.4041 41.441L40.7227 41.8009L41.0153 42.1428L41.2819 42.4668L41.5225 42.773C41.9399 43.3181 42.2263 43.7743 42.3821 44.1449C42.5743 44.6042 42.7209 45.1119 42.7833 45.6436Z" fill="#E1000F"/>
        <path d="M46.8945 12.5168C46.8541 12.1687 46.5582 11.8984 46.1992 11.8984H8.39922L8.31758 11.9031C7.96945 11.9436 7.69922 12.2395 7.69922 12.5984V44.7984L7.70393 44.8801C7.74436 45.2282 8.04023 45.4984 8.39922 45.4984H25.1992L25.2809 45.4937C25.629 45.4533 25.8992 45.1574 25.8992 44.7984L25.8945 44.7168C25.8541 44.3687 25.5582 44.0984 25.1992 44.0984H9.09922V18.8984H34.9992L35.0809 18.8937C35.429 18.8533 35.6992 18.5574 35.6992 18.1984C35.6992 17.8118 35.3858 17.4984 34.9992 17.4984H9.09922V13.2984H45.4992V17.4984H39.1992L39.1176 17.5031C38.7694 17.5436 38.4992 17.8395 38.4992 18.1984C38.4992 18.585 38.8126 18.8984 39.1992 18.8984H45.4992V23.7984L45.5039 23.8801C45.5444 24.2282 45.8402 24.4984 46.1992 24.4984C46.5858 24.4984 46.8992 24.185 46.8992 23.7984V12.5984L46.8945 12.5168Z" fill="#000091"/>
        <path d="M11.1992 16.0984C10.8132 16.0984 10.4992 15.7844 10.4992 15.3984C10.4992 15.0124 10.8132 14.6984 11.1992 14.6984C11.5852 14.6984 11.8992 15.0124 11.8992 15.3984C11.8992 15.7844 11.5852 16.0984 11.1992 16.0984Z" fill="#000091"/>
        <path d="M13.2992 15.3984C13.2992 15.7844 13.6132 16.0984 13.9992 16.0984C14.3852 16.0984 14.6992 15.7844 14.6992 15.3984C14.6992 15.0124 14.3852 14.6984 13.9992 14.6984C13.6132 14.6984 13.2992 15.0124 13.2992 15.3984Z" fill="#000091"/>
        <path d="M16.7992 16.0984C16.4132 16.0984 16.0992 15.7844 16.0992 15.3984C16.0992 15.0124 16.4132 14.6984 16.7992 14.6984C17.1852 14.6984 17.4992 15.0124 17.4992 15.3984C17.4992 15.7844 17.1852 16.0984 16.7992 16.0984Z" fill="#000091"/>
        <path d="M43.3992 14.6984C43.7858 14.6984 44.0992 15.0118 44.0992 15.3984C44.0992 15.7574 43.829 16.0533 43.4809 16.0937L43.3992 16.0984H22.3992C22.0126 16.0984 21.6992 15.785 21.6992 15.3984C21.6992 15.0395 21.9694 14.7436 22.3176 14.7031L22.3992 14.6984H43.3992Z" fill="#000091"/>
        <path d="M27.2992 23.7984C27.2992 23.4118 26.9858 23.0984 26.5992 23.0984H13.9992L13.9176 23.1031C13.5694 23.1436 13.2992 23.4395 13.2992 23.7984C13.2992 24.185 13.6126 24.4984 13.9992 24.4984H26.5992L26.6809 24.4937C27.029 24.4533 27.2992 24.1574 27.2992 23.7984Z" fill="#000091"/>
        <path d="M23.7992 27.2984C24.1858 27.2984 24.4992 27.6118 24.4992 27.9984C24.4992 28.3574 24.229 28.6533 23.8809 28.6937L23.7992 28.6984H13.9992C13.6126 28.6984 13.2992 28.385 13.2992 27.9984C13.2992 27.6395 13.5694 27.3436 13.9176 27.3031L13.9992 27.2984H23.7992Z" fill="#000091"/>
        <path d="M23.0992 32.1984C23.0992 31.8118 22.7858 31.4984 22.3992 31.4984H13.9992L13.9176 31.5031C13.5694 31.5436 13.2992 31.8395 13.2992 32.1984C13.2992 32.585 13.6126 32.8984 13.9992 32.8984H22.3992L22.4809 32.8937C22.829 32.8533 23.0992 32.5574 23.0992 32.1984Z" fill="#000091"/>
    </g>
</svg>
