<svg width="26px" height="19px" viewBox="0 0 26 19" xmlns="http://www.w3.org/2000/svg">
    <g id="artwork-major" class="fr-artwork-major">
        <path d="M9.41318 15.3636C9.27269 16.3496 8.78116 17.2518 8.02889 17.9045C7.27662 18.5571 6.31412 18.9165 5.31818 18.9165C4.32224 18.9165 3.35974 18.5571 2.60747 17.9045C1.8552 17.2518 1.36368 16.3496 1.22318 15.3636H0V1.18182C0 0.86838 0.124513 0.567781 0.346146 0.346147C0.56778 0.124513 0.86838 0 1.18182 0H17.7273C18.0407 0 18.3413 0.124513 18.5629 0.346147C18.7846 0.567781 18.9091 0.86838 18.9091 1.18182V3.54545H22.4545L26 8.33891V15.3636H23.595C23.4545 16.3496 22.963 17.2518 22.2107 17.9045C21.4584 18.5571 20.4959 18.9165 19.5 18.9165C18.5041 18.9165 17.5416 18.5571 16.7893 17.9045C16.037 17.2518 15.5455 16.3496 15.405 15.3636H9.41318ZM16.5455 2.36364H2.36364V11.8773C2.82994 11.4012 3.40435 11.0449 4.03798 10.8386C4.67161 10.6323 5.34571 10.5821 6.0029 10.6924C6.66009 10.8026 7.28091 11.07 7.81254 11.4718C8.34416 11.8736 8.77084 12.3978 9.05627 13H15.7619C15.9605 12.5828 16.2264 12.2035 16.5455 11.8773V2.36364ZM18.9091 9.45454H23.6364V9.11773L21.2633 5.90909H18.9091V9.45454ZM19.5 16.5455C19.9703 16.5455 20.4214 16.3586 20.7539 16.0261C21.0865 15.6935 21.2733 15.2424 21.2733 14.7721C21.2733 14.3018 21.0865 13.8508 20.7539 13.5182C20.4214 13.1856 19.9703 12.9988 19.5 12.9988C19.0297 12.9988 18.5786 13.1856 18.2461 13.5182C17.9135 13.8508 17.7267 14.3018 17.7267 14.7721C17.7267 15.2424 17.9135 15.6935 18.2461 16.0261C18.5786 16.3586 19.0297 16.5455 19.5 16.5455ZM7.09091 14.7727C7.09091 14.5399 7.04506 14.3094 6.95597 14.0943C6.86688 13.8793 6.7363 13.6838 6.57169 13.5192C6.40708 13.3546 6.21165 13.224 5.99657 13.1349C5.7815 13.0459 5.55098 13 5.31818 13C5.08538 13 4.85487 13.0459 4.63979 13.1349C4.42471 13.224 4.22929 13.3546 4.06467 13.5192C3.90006 13.6838 3.76948 13.8793 3.6804 14.0943C3.59131 14.3094 3.54545 14.5399 3.54545 14.7727C3.54545 15.2429 3.73222 15.6938 4.06467 16.0262C4.39712 16.3587 4.84803 16.5455 5.31818 16.5455C5.78834 16.5455 6.23924 16.3587 6.57169 16.0262C6.90414 15.6938 7.09091 15.2429 7.09091 14.7727Z"/>
    </g>
</svg>
