<svg width="24" height="22" viewBox="0 0 24 22" fill="none" xmlns="http://www.w3.org/2000/svg">
<path fill-rule="evenodd" clip-rule="evenodd" d="M18.816 9.53579e-07C19.7759 9.53579e-07 20.6434 0.572153 21.0216 1.4544L24 8.4V20.4C24 21.0627 23.4627 21.6 22.8 21.6H21.6C20.9373 21.6 20.4 21.0627 20.4 20.4V19.2H3.6V20.4C3.6 21.0627 3.06274 21.6 2.4 21.6H1.2C0.537258 21.6 0 21.0627 0 20.4V8.4L2.976 1.4544C3.35454 0.571351 4.22323 -0.000852583 5.184 9.53579e-07H18.816ZM21.6 10.8H2.4V16.8H21.6V10.8ZM5.4 12C6.39411 12 7.2 12.8059 7.2 13.8C7.2 14.7941 6.39411 15.6 5.4 15.6C4.40589 15.6 3.6 14.7941 3.6 13.8C3.6 12.8059 4.40589 12 5.4 12ZM18.6 12C19.5941 12 20.4 12.8059 20.4 13.8C20.4 14.7941 19.5941 15.6 18.6 15.6C17.6059 15.6 16.8 14.7941 16.8 13.8C16.8 12.8059 17.6059 12 18.6 12ZM18.8172 2.4H5.184L2.6124 8.4H21.3888L18.8172 2.4Z" fill="#000091"/>
</svg>
