<svg width="15" height="16" viewBox="0 0 15 16" fill="none" xmlns="http://www.w3.org/2000/svg">
<path d="M3.2 3.2V0.799999C3.2 0.587826 3.28428 0.384343 3.43431 0.234314C3.58434 0.0842854 3.78782 0 4 0H13.6C13.8122 0 14.0156 0.0842854 14.1657 0.234314C14.3157 0.384343 14.4 0.587826 14.4 0.799999V12C14.4 12.2122 14.3157 12.4156 14.1657 12.5657C14.0156 12.7157 13.8122 12.8 13.6 12.8H11.2V15.2C11.2 15.6416 10.84 16 10.3944 16H0.805599C0.700101 16.0006 0.595517 15.9804 0.497857 15.9405C0.400198 15.9006 0.311386 15.8418 0.236527 15.7674C0.161667 15.6931 0.102234 15.6047 0.0616434 15.5073C0.0210525 15.4099 0.000103499 15.3055 0 15.2L0.00240001 4C0.00240001 3.5584 0.3624 3.2 0.807999 3.2H3.2ZM1.6024 4.8L1.6 14.4H9.59999V4.8H1.6024ZM4.8 3.2H11.2V11.2H12.8V1.6H4.8V3.2Z" fill="#000091"/>
</svg>
