<svg width="16" height="12" viewBox="0 0 16 12" fill="none" xmlns="http://www.w3.org/2000/svg">
<path fill-rule="evenodd" clip-rule="evenodd" d="M3.33464 6.66683C4.80739 6.66683 6.0013 7.86074 6.0013 9.3335C6.0013 10.8063 4.80739 12.0002 3.33464 12.0002C1.86188 12.0002 0.667969 10.8063 0.667969 9.3335C0.667969 7.86074 1.86188 6.66683 3.33464 6.66683ZM12.0013 5.3335C13.8423 5.3335 15.3346 6.82588 15.3346 8.66683C15.3346 10.5078 13.8423 12.0002 12.0013 12.0002C10.1604 12.0002 8.66797 10.5078 8.66797 8.66683C8.66797 6.82588 10.1604 5.3335 12.0013 5.3335ZM3.33464 8.66683C2.96645 8.66683 2.66797 8.96531 2.66797 9.3335C2.66797 9.70169 2.96645 10.0002 3.33464 10.0002C3.70283 10.0002 4.0013 9.70169 4.0013 9.3335C4.0013 8.96531 3.70283 8.66683 3.33464 8.66683ZM12.0013 8.00016C11.6331 8.00016 11.3346 8.29864 11.3346 8.66683C11.3346 9.03502 11.6331 9.3335 12.0013 9.3335C12.3695 9.3335 12.668 9.03502 12.668 8.66683C12.668 8.29864 12.3695 8.00016 12.0013 8.00016ZM10.6533 0.000163896C10.9605 -0.00661283 11.2325 0.197397 11.312 0.494164L12.3473 4.35816L11.0593 4.70283L10.8886 4.0655L3.66797 6.00016H2.66797V2.66683H1.33464V1.3335H5.33464V2.66683H4.0013V4.53016L10.5433 2.7775L10.1566 1.3335H8.0013V0.000163896H10.6533Z" fill="#F5F5FE"/>
</svg>
