<svg width="14" height="13" viewBox="0 0 14 13" fill="none" xmlns="http://www.w3.org/2000/svg">
<path fill-rule="evenodd" clip-rule="evenodd" d="M11.6654 0C12.4017 0 12.9987 0.596954 12.9987 1.33333V3.33333H13.6654V6H12.9987V11.3333H12.332V12C12.332 12.3682 12.0336 12.6667 11.6654 12.6667H10.9987C10.6305 12.6667 10.332 12.3682 10.332 12V11.3333H3.66536V12C3.66536 12.3682 3.36689 12.6667 2.9987 12.6667H2.33203C1.96384 12.6667 1.66536 12.3682 1.66536 12V11.3333H0.998698V6H0.332031V3.33333H0.998698V1.33333C0.998698 0.596954 1.59565 0 2.33203 0H11.6654ZM4.9987 8.66667H2.33203V10H4.9987V8.66667ZM11.6654 8.66667H8.9987V10H11.6654V8.66667ZM11.6654 1.33333H2.33203V7.33333H11.6654V1.33333Z" fill="#000091"/>
</svg>
