<svg width="24" height="24" viewBox="0 0 24 24" fill="none" xmlns="http://www.w3.org/2000/svg">
<path fill-rule="evenodd" clip-rule="evenodd" d="M12 11C14.7614 11 17 13.2386 17 16V22H15V16C15.0001 14.4114 13.7618 13.0982 12.176 13.005L12 13C10.4114 12.9999 9.0982 14.2382 9.005 15.824L9 16V22H7V16C7 13.2386 9.23858 11 12 11ZM5.5 14C5.779 14 6.05 14.033 6.31 14.094C6.13902 14.603 6.03777 15.1328 6.009 15.669L6 16V16.086C5.88505 16.0449 5.76549 16.018 5.644 16.006L5.5 16C4.72738 16 4.08117 16.5869 4.007 17.356L4 17.5V22H2V17.5C2 15.567 3.567 14 5.5 14ZM18.5 14C20.433 14 22 15.567 22 17.5V22H20V17.5C20 16.7274 19.4131 16.0812 18.644 16.007L18.5 16C18.325 16 18.157 16.03 18 16.085V16C18 15.334 17.892 14.694 17.691 14.096C17.95 14.033 18.221 14 18.5 14ZM5.5 8C6.88071 8 8 9.11929 8 10.5C8 11.8807 6.88071 13 5.5 13C4.11929 13 3 11.8807 3 10.5C3 9.11929 4.11929 8 5.5 8ZM18.5 8C19.8807 8 21 9.11929 21 10.5C21 11.8807 19.8807 13 18.5 13C17.1193 13 16 11.8807 16 10.5C16 9.11929 17.1193 8 18.5 8ZM5.5 10C5.22386 10 5 10.2239 5 10.5C5 10.7761 5.22386 11 5.5 11C5.77614 11 6 10.7761 6 10.5C6 10.2239 5.77614 10 5.5 10ZM18.5 10C18.2239 10 18 10.2239 18 10.5C18 10.7761 18.2239 11 18.5 11C18.7761 11 19 10.7761 19 10.5C19 10.2239 18.7761 10 18.5 10ZM12 2C14.2091 2 16 3.79086 16 6C16 8.20914 14.2091 10 12 10C9.79086 10 8 8.20914 8 6C8 3.79086 9.79086 2 12 2ZM12 4C10.8954 4 10 4.89543 10 6C10 7.10457 10.8954 8 12 8C13.1046 8 14 7.10457 14 6C14 4.89543 13.1046 4 12 4Z" fill="#000091"/>
</svg>
