<svg width="28" height="28" viewBox="0 0 28 28" fill="none" xmlns="http://www.w3.org/2000/svg">
    <path d="M11.342 0.804373C9.47327 0.199426 7.44176 1.04089 6.54809 2.79009L5.47372 4.89299C5.34607 5.14285 5.14285 5.34607 4.89299 5.47372L2.79009 6.54809C1.04089 7.44176 0.199426 9.47327 0.804373 11.342L1.53165 13.5887C1.61807 13.8556 1.61807 14.1431 1.53165 14.41L0.804373 16.6567C0.199426 18.5255 1.04089 20.5569 2.79009 21.4507L4.89299 22.5249C5.14285 22.6527 5.34607 22.8559 5.47372 23.1057L6.54809 25.2087C7.44176 26.9579 9.47327 27.7993 11.342 27.1944L13.5887 26.4671C13.8556 26.3807 14.1431 26.3807 14.41 26.4671L16.6567 27.1944C18.5255 27.7993 20.5569 26.9579 21.4507 25.2087L22.5249 23.1057C22.6527 22.8559 22.8559 22.6527 23.1057 22.5249L25.2087 21.4507C26.9579 20.5569 27.7993 18.5255 27.1944 16.6567L26.4671 14.41C26.3807 14.1431 26.3807 13.8556 26.4671 13.5887L27.1944 11.342C27.7993 9.47327 26.9579 7.44176 25.2087 6.54809L23.1057 5.47372C22.8559 5.34607 22.6527 5.14285 22.5249 4.89299L21.4507 2.79009C20.5569 1.04089 18.5255 0.199426 16.6567 0.804373L14.41 1.53165C14.1431 1.61805 13.8556 1.61807 13.5887 1.53165L11.342 0.804373ZM7.01237 13.6757L8.898 11.79L12.6692 15.5613L20.2117 8.01888L22.0973 9.90449L12.6692 19.3325L7.01237 13.6757Z" fill="#B2B2F9"/>
</svg>
