<svg width="12" height="16" viewBox="0 0 12 16" fill="none" xmlns="http://www.w3.org/2000/svg">
<path fill-rule="evenodd" clip-rule="evenodd" d="M6.0016 0.666992C8.26622 0.666992 10.2839 2.09716 11.0339 4.23397C11.784 6.37079 11.1028 8.74827 9.33494 10.1637V14.7443C9.33496 14.8644 9.27041 14.9752 9.16595 15.0344C9.06149 15.0936 8.93326 15.092 8.83027 15.0303L6.0016 13.333L3.17294 15.0303C3.06984 15.0921 2.94147 15.0936 2.83696 15.0342C2.73246 14.9749 2.668 14.8638 2.66827 14.7437V10.1637C0.900449 8.74827 0.21924 6.37079 0.969263 4.23397C1.71929 2.09716 3.73698 0.666992 6.0016 0.666992ZM8.0016 10.945C7.36617 11.202 6.68704 11.3337 6.0016 11.333C5.31616 11.3337 4.63704 11.202 4.0016 10.945V12.9783L6.0016 11.7783L8.0016 12.9783V10.945ZM6.0016 1.99966C3.79246 1.99966 2.0016 3.79052 2.0016 5.99966C2.0016 8.2088 3.79246 9.99966 6.0016 9.99966C8.21074 9.99966 10.0016 8.2088 10.0016 5.99966C10.0016 3.79052 8.21074 1.99966 6.0016 1.99966Z" fill="#000091"/>
</svg>
