<svg width="24" height="24" viewBox="0 0 24 24" fill="none" xmlns="http://www.w3.org/2000/svg">
<path d="M16.015 6.26594C15.5626 5.94916 14.9391 6.05911 14.6223 6.51152C14.3055 6.96392 14.4155 7.58747 14.8679 7.90424C15.3203 8.22102 15.9438 8.11107 16.2606 7.65867C16.5774 7.20627 16.4674 6.58271 16.015 6.26594ZM12.984 5.36436C13.9343 4.00715 15.805 3.67731 17.1622 4.62764C18.5194 5.57797 18.8492 7.44861 17.8989 8.80582C17.1497 9.87581 15.8285 10.3073 14.6378 9.97629L11.0005 15.1709C11.7188 16.1765 11.7652 17.5657 11.016 18.6356C10.0656 19.9929 8.195 20.3227 6.83779 19.3724C5.48058 18.422 5.15071 16.5514 6.10107 15.1942C6.85027 14.1242 8.17152 13.6927 9.36219 14.0237L12.9995 8.82913C12.2812 7.82346 12.2348 6.43436 12.984 5.36436ZM9.1321 16.0958C8.6797 15.779 8.05616 15.8889 7.73937 16.3413C7.42258 16.7938 7.53254 17.4173 7.98494 17.7341C8.43735 18.0508 9.06089 17.9409 9.37767 17.4885C9.69446 17.0361 9.5845 16.4125 9.1321 16.0958Z" fill="#000091"/>
</svg>
