<svg width="14" height="14" viewBox="0 0 14 14" fill="none" xmlns="http://www.w3.org/2000/svg">
<path fill-rule="evenodd" clip-rule="evenodd" d="M9.66537 0.666992C10.0334 0.666992 10.332 0.965659 10.332 1.33366V3.33366H12.9987C13.3667 3.33366 13.6654 3.63233 13.6654 4.00033V13.3337C13.6654 13.7017 13.3667 14.0003 12.9987 14.0003H0.998698C0.630698 14.0003 0.332031 13.7017 0.332031 13.3337V4.00033C0.332031 3.63233 0.630698 3.33366 0.998698 3.33366H3.66536V1.33366C3.66536 0.965659 3.96403 0.666992 4.33203 0.666992H9.66537ZM12.332 4.66699H1.66536V12.667H12.332V4.66699ZM7.66536 6.00033V8.00033H9.66537V9.33366H7.6647L7.66536 11.3337H6.33203L6.33136 9.33366H4.33203V8.00033H6.33203V6.00033H7.66536ZM8.9987 2.00033H4.9987V3.33366H8.9987V2.00033Z" fill="#000091"/>
</svg>
