<svg width="16" height="16" viewBox="0 0 16 16" fill="none" xmlns="http://www.w3.org/2000/svg">
<path d="M7.88372 15C10.5809 15 12.7674 12.8135 12.7674 10.1163C12.7674 9.5527 12.6175 9.01139 12.4419 8.50765C11.3566 9.58005 10.5318 10.1163 9.96744 10.1163C12.5691 5.55814 11.1395 3.60465 7.23256 1C7.55814 4.25549 5.41193 5.7364 4.53791 6.55872C3.59116 7.44944 3 8.7138 3 10.1163C3 12.8135 5.18651 15 7.88372 15ZM8.34566 3.43208C10.4565 5.22297 10.4666 6.61452 8.83637 9.47072C8.34084 10.3389 8.96778 11.4186 9.96744 11.4186C10.4157 11.4186 10.8687 11.2879 11.3472 11.0312C10.9428 12.566 9.54542 13.6977 7.88372 13.6977C5.90577 13.6977 4.30233 12.0943 4.30233 10.1163C4.30233 9.11401 4.71438 8.18076 5.4303 7.5072C5.51236 7.43004 5.9286 7.06109 5.94636 7.04514C6.22236 6.79672 6.44973 6.57806 6.67445 6.33743C7.47564 5.47956 8.05114 4.5269 8.34566 3.43208Z" fill="#000091"/>
</svg>
