<svg width="14" height="12" viewBox="0 0 14 12" fill="none" xmlns="http://www.w3.org/2000/svg">
<path d="M5.06864 9.17995C4.99299 9.71087 4.72832 10.1967 4.32325 10.5481C3.91818 10.8995 3.39991 11.093 2.86364 11.093C2.32736 11.093 1.80909 10.8995 1.40402 10.5481C0.998954 10.1967 0.734287 9.71087 0.658636 9.17995H0V1.54359C0 1.37482 0.0670452 1.21295 0.186387 1.09361C0.305728 0.974272 0.467589 0.907227 0.636364 0.907227H9.54545C9.71423 0.907227 9.87609 0.974272 9.99543 1.09361C10.1148 1.21295 10.1818 1.37482 10.1818 1.54359V2.81632H12.0909L14 5.39741V9.17995H12.705C12.6293 9.71087 12.3647 10.1967 11.9596 10.5481C11.5545 10.8995 11.0363 11.093 10.5 11.093C9.96373 11.093 9.44545 10.8995 9.04039 10.5481C8.63532 10.1967 8.37065 9.71087 8.295 9.17995H5.06864ZM8.90909 2.17995H1.27273V7.30268C1.52381 7.04635 1.83311 6.85448 2.1743 6.74339C2.51548 6.63231 2.87846 6.60529 3.23233 6.66466C3.5862 6.72402 3.92049 6.868 4.20675 7.08435C4.49301 7.30069 4.72276 7.58299 4.87645 7.90723H8.48718C8.59409 7.68259 8.73727 7.47832 8.90909 7.30268V2.17995ZM10.1818 5.99814H12.7273V5.81677L11.4495 4.08904H10.1818V5.99814ZM10.5 9.81632C10.7532 9.81632 10.9961 9.71572 11.1752 9.53664C11.3543 9.35757 11.4549 9.1147 11.4549 8.86145C11.4549 8.60821 11.3543 8.36534 11.1752 8.18626C10.9961 8.00719 10.7532 7.90659 10.5 7.90659C10.2468 7.90659 10.0039 8.00719 9.82481 8.18626C9.64574 8.36534 9.54514 8.60821 9.54514 8.86145C9.54514 9.1147 9.64574 9.35757 9.82481 9.53664C10.0039 9.71572 10.2468 9.81632 10.5 9.81632ZM3.81818 8.86177C3.81818 8.73642 3.79349 8.61229 3.74552 8.49648C3.69755 8.38067 3.62724 8.27545 3.5386 8.18681C3.44996 8.09817 3.34474 8.02786 3.22893 7.97989C3.11311 7.93192 2.98899 7.90723 2.86364 7.90723C2.73828 7.90723 2.61416 7.93192 2.49835 7.97989C2.38254 8.02786 2.27731 8.09817 2.18867 8.18681C2.10003 8.27545 2.02972 8.38067 1.98175 8.49648C1.93378 8.61229 1.90909 8.73642 1.90909 8.86177C1.90909 9.11493 2.00966 9.35773 2.18867 9.53674C2.36768 9.71575 2.61048 9.81632 2.86364 9.81632C3.1168 9.81632 3.35959 9.71575 3.5386 9.53674C3.71761 9.35773 3.81818 9.11493 3.81818 8.86177Z" fill="white"/>
</svg>
