<svg width="44" height="44" viewBox="0 0 44 44" fill="none" xmlns="http://www.w3.org/2000/svg">
<path d="M9.72168 9.72168C16.6834 2.75994 27.9836 2.75994 34.9453 9.72168C41.9069 16.6834 41.907 27.9836 34.9453 34.9453C27.9836 41.907 16.6834 41.9069 9.72168 34.9453C2.75995 27.9836 2.75995 16.6834 9.72168 9.72168Z" fill="#FDDBFA" stroke="#A558A0"/>
<rect width="13" height="13" transform="translate(9 15)" fill="#FDDBFA"/>
<path fill-rule="evenodd" clip-rule="evenodd" d="M18.5767 17.166C19.01 17.166 19.4016 17.4243 19.5723 17.8225L20.9167 20.9577V26.3744C20.9167 26.6735 20.6742 26.916 20.375 26.916H19.8334C19.5342 26.916 19.2917 26.6735 19.2917 26.3744V25.8327H11.7084V26.3744C11.7084 26.6735 11.4659 26.916 11.1667 26.916H10.625C10.3259 26.916 10.0834 26.6735 10.0834 26.3744V20.9577L11.4267 17.8225C11.5976 17.4239 11.9897 17.1656 12.4234 17.166H18.5767ZM19.8334 22.041H11.1667V24.7494H19.8334V22.041ZM12.5209 22.5827C12.9696 22.5827 13.3334 22.9465 13.3334 23.3952C13.3334 23.8439 12.9696 24.2077 12.5209 24.2077C12.0721 24.2077 11.7084 23.8439 11.7084 23.3952C11.7084 22.9465 12.0721 22.5827 12.5209 22.5827ZM18.4792 22.5827C18.9279 22.5827 19.2917 22.9465 19.2917 23.3952C19.2917 23.8439 18.9279 24.2077 18.4792 24.2077C18.0305 24.2077 17.6667 23.8439 17.6667 23.3952C17.6667 22.9465 18.0305 22.5827 18.4792 22.5827ZM18.5772 18.2493H12.4234L11.2626 20.9577H19.738L18.5772 18.2493Z" fill="#A558A0"/>
<rect width="12.8333" height="13.9167" transform="translate(22 14)" fill="#FDDBFA"/>
<path fill-rule="evenodd" clip-rule="evenodd" d="M31.9166 15C32.5149 15 33.2917 17.11 33.2917 17.7083V19.3333H33.8333V21.5H33.2917V25.8333H32.75V26.375C32.75 26.6742 32.5075 26.9167 32.2083 26.9167H31.6667C31.3675 26.9167 31.125 26.6742 31.125 26.375V25.8333H25.7083V26.375C25.7083 26.6742 25.4658 26.9167 25.1667 26.9167H24.625C24.3258 26.9167 24.0833 26.6742 24.0833 26.375V25.8333H23.5417V21.5H23V19.3333H23.5417V17.7083C23.5417 17.11 24.3183 15 24.9166 15H31.9166ZM26.7917 23H24.625L24.625 24.75H26.7917L26.7917 23ZM32.2083 23H30.0417L30.0417 24.75H32.2083L32.2083 23ZM32.2083 18.5H24.625V21.5H32.2083V18.5Z" fill="#A558A0"/>
</svg>
