<svg width="44" height="44" viewBox="0 0 44 44" fill="none" xmlns="http://www.w3.org/2000/svg">
<path d="M9.38831 9.3877C16.3501 2.42596 27.6502 2.42596 34.6119 9.3877C41.5735 16.3495 41.5736 27.6496 34.6119 34.6113C27.6502 41.573 16.3501 41.5729 9.38831 34.6113C2.42658 27.6496 2.42658 16.3494 9.38831 9.3877Z" fill="#FDDFD8" stroke="#E4794A"/>
<path d="M14 13H30C30.5523 13 31 13.4477 31 14V30C31 30.5523 30.5523 31 30 31H14C13.4477 31 13 30.5523 13 30V14C13 13.4477 13.4477 13 14 13ZM15 15V29H29V15H15ZM19 17H22.5C24.433 17 26 18.567 26 20.5C26 22.433 24.433 24 22.5 24H21V27H19V17ZM21 19V22H22.5C23.3284 22 24 21.3284 24 20.5C24 19.6716 23.3284 19 22.5 19H21Z" fill="#E4794A"/>
</svg>
