<svg xmlns="http://www.w3.org/2000/svg" viewBox="0 0 24 24" fill="rgba(0,0,145,1)"><path d="M4 16V14H2V12L3 7H5V4C5 3.44772 5.44772 3 6 3H18C18.5523 3 19 3.44772 19 4V7H21L22 12V14H20V16H22V18H20V20H16V18H8V20H4V18H2V16H4ZM5 12H19V8H13V9H17V11H15V10H13V11H11V10H9V11H7V9H11V8H5V12ZM6.5 16C7.32843 16 8 15.3284 8 14.5C8 13.6716 7.32843 13 6.5 13C5.67157 13 5 13.6716 5 14.5C5 15.3284 5.67157 16 6.5 16ZM17.5 16C18.3284 16 19 15.3284 19 14.5C19 13.6716 18.3284 13 17.5 13C16.6716 13 16 13.6716 16 14.5C16 15.3284 16.6716 16 17.5 16Z"/></svg>
