<svg width="10" height="15" viewBox="0 0 10 15" fill="none" xmlns="http://www.w3.org/2000/svg">
<path d="M2.07867 4.808L4.21533 3.256C4.45519 3.08047 4.74693 2.99034 5.044 3C5.40634 3.00904 5.75686 3.13074 6.04683 3.34819C6.33681 3.56564 6.55183 3.86803 6.662 4.21333C6.786 4.602 6.89933 4.86467 7.002 5.00133C7.31221 5.4152 7.71461 5.75107 8.17727 5.98229C8.63993 6.2135 9.15011 6.3337 9.66733 6.33333V7.66667C8.97886 7.66742 8.29879 7.51552 7.67607 7.22191C7.05335 6.9283 6.50346 6.50028 6.066 5.96867L5.60133 8.60533L6.97533 9.75867L8.45733 13.8307L7.204 14.2867L5.844 10.5507L3.584 8.654C3.39853 8.50424 3.25661 8.30748 3.17301 8.08424C3.08941 7.86099 3.06719 7.61942 3.10867 7.38467L3.448 5.46133L2.99667 5.78933L1.57867 7.74133L0.5 6.95733L2.06733 4.8L2.07867 4.808ZM6.00067 2.66667C5.64704 2.66667 5.30791 2.52619 5.05786 2.27614C4.80781 2.02609 4.66733 1.68696 4.66733 1.33333C4.66733 0.979711 4.80781 0.640573 5.05786 0.390524C5.30791 0.140476 5.64704 0 6.00067 0C6.35429 0 6.69343 0.140476 6.94347 0.390524C7.19352 0.640573 7.334 0.979711 7.334 1.33333C7.334 1.68696 7.19352 2.02609 6.94347 2.27614C6.69343 2.52619 6.35429 2.66667 6.00067 2.66667ZM4.01933 11.454L1.87667 14.0073L0.855333 13.1507L2.83933 10.7867L3.33667 9.33333L4.53067 10.3333L4.01933 11.454Z" fill="#000091"/>
</svg>
