<svg width="40" height="40" viewBox="0 0 40 40" fill="none" xmlns="http://www.w3.org/2000/svg">
<path d="M26.6887 3.22656C28.4729 3.22656 30.1219 4.1773 31.0158 5.72138L37.6449 17.1716C38.542 18.7212 38.542 20.6323 37.6449 22.182L31.0158 33.6322C30.1219 35.1763 28.4729 36.127 26.6887 36.127H13.4066C11.6224 36.127 9.97338 35.1763 9.07944 33.6322L2.45037 22.182C1.55321 20.6323 1.55321 18.7212 2.45037 17.1716L9.07944 5.72138C9.97339 4.17729 11.6224 3.22656 13.4066 3.22656H26.6887ZM28.7302 8.68562C28.0151 7.45035 26.6959 6.68977 25.2685 6.68977H14.8267C13.3994 6.68977 12.0802 7.45035 11.365 8.68562L6.16203 17.6726C5.4443 18.9123 5.4443 20.4412 6.16203 21.6809L11.365 30.6679C12.0802 31.9032 13.3994 32.6638 14.8267 32.6638H25.2685C26.6959 32.6638 28.0151 31.9032 28.7302 30.6679L33.9332 21.6809C34.6509 20.4412 34.6509 18.9123 33.9332 17.6726L28.7302 8.68562Z" fill="#B2B2F9"/>
<path d="M19.2539 22.6L18.6299 11.2H22.1339L21.5099 22.6H19.2539ZM20.4059 28.288C19.2539 28.288 18.2939 27.328 18.2939 26.2C18.2939 25.072 19.2299 24.112 20.4059 24.112C21.5339 24.112 22.4939 25.072 22.4939 26.2C22.4939 27.328 21.5339 28.288 20.4059 28.288Z" fill="#AFAFF9"/>
</svg>
