<svg xmlns="http://www.w3.org/2000/svg" viewBox="0 0 48 48" fill="rgba(0,0,145,1)"><g transform="translate(0,48) scale(0.1,-0.1)"><path d="M0 375 c0 -94 0 -95 24 -95 22 0 25 5 28 40 l3 41 55 -56 54 -55 -82 0 -82 0 0 -100 0 -100 39 0 c22 0 44 -6 51 -15 16 -19 64 -19 80 0 17 21 123 21 140 0 16 -19 64 -19 80 0 7 9 29 15 51 15 l39 0 0 88 c0 79 -4 97 -34 168 l-35 79 -78 0 -78 0 -5 -31 -5 -32 -80 74 c-73 67 -84 74 -122 74 l-43 0 0 -95z m405 -101 c17 -38 25 -75 25 -112 l0 -56 -28 27 c-35 34 -72 34 -102 2 -17 -18 -34 -25 -60 -25 -26 0 -43 7 -60 25 -30 32 -67 32 -102 -2 l-28 -27 0 42 0 41 128 3 127 3 3 68 3 67 35 0 c32 0 36 -4 59 -56z"/><path d="M330 265 c0 -45 0 -45 35 -45 33 0 34 1 25 26 -18 46 -30 64 -45 64 -11 0 -15 -12 -15 -45z"/></g></svg>
