<svg width="40" height="40" viewBox="0 0 40 40" fill="none" xmlns="http://www.w3.org/2000/svg">
<circle cx="19" cy="19" r="18.5" fill="#FDE39C" stroke="#B34000"/>
<path d="M17.714 21.2C17.714 23.062 16.188 24.28 14.144 24.28C12.296 24.28 11.106 23.468 10.308 22.068L11.96 21.046C12.506 22.124 13.164 22.6 14.13 22.6C15.082 22.6 15.796 22.026 15.796 21.116C15.796 20.22 15.096 19.66 14.06 19.66H12.45V17.98H13.934C14.76 17.98 15.362 17.518 15.362 16.762C15.362 16.02 14.802 15.6 14.032 15.6C13.248 15.6 12.716 16.02 12.31 16.72L10.77 15.768C11.484 14.606 12.59 13.92 14.172 13.92C15.964 13.92 17.294 14.942 17.294 16.552C17.294 17.462 16.902 18.232 16.174 18.736C17.168 19.24 17.714 20.122 17.714 21.2ZM22.5672 13.92C25.1432 13.92 26.3472 16.16 26.3472 19.1C26.3472 22.04 25.1432 24.28 22.5672 24.28C19.9912 24.28 18.7872 22.04 18.7872 19.1C18.7872 16.16 19.9912 13.92 22.5672 13.92ZM22.5672 15.67C21.3212 15.67 20.7192 17.042 20.7192 19.1C20.7192 21.172 21.3212 22.53 22.5672 22.53C23.7992 22.53 24.4012 21.158 24.4012 19.1C24.4012 17.028 23.7992 15.67 22.5672 15.67Z" fill="#B34000"/>
</svg>
