<svg width="24" height="24" viewBox="0 0 24 24" fill="none" xmlns="http://www.w3.org/2000/svg">
<path fill-rule="evenodd" clip-rule="evenodd" d="M15 3V5H17.681C18.4809 5.00009 19.2038 5.47679 19.519 6.212L22 12V21C22 21.5523 21.5523 22 21 22H20C19.4477 22 19 21.5523 19 21V20H5V21C5 21.5523 4.55228 22 4 22H3C2.44772 22 2 21.5523 2 21V12L4.48 6.212C4.79545 5.47612 5.51936 4.99929 6.32 5H9V3H15ZM6.5 14C5.67157 14 5 14.6716 5 15.5C5 16.3284 5.67157 17 6.5 17C7.32843 17 8 16.3284 8 15.5C8 14.6716 7.32843 14 6.5 14ZM17.5 14C16.6716 14 16 14.6716 16 15.5C16 16.3284 16.6716 17 17.5 17C18.3284 17 19 16.3284 19 15.5C19 14.6716 18.3284 14 17.5 14ZM17.681 7H6.32L4.177 12H19.824L17.681 7Z" fill="#000091"/>
</svg>
