<svg width="16" height="16" viewBox="0 0 16 16" fill="none" xmlns="http://www.w3.org/2000/svg">
<path d="M13.0713 4.66268C13.0207 4.46402 12.8767 4.31402 12.712 4.26802C12.4207 4.18602 11.0007 3.99935 8.00065 3.99935C5.00065 3.99935 3.58198 4.18602 3.28798 4.26802C3.12532 4.31335 2.98132 4.46335 2.92998 4.66268C2.85732 4.94535 2.66732 6.13002 2.66732 7.99935C2.66732 9.86868 2.85732 11.0527 2.92998 11.3367C2.98065 11.5347 3.12465 11.6847 3.28865 11.73C3.58198 11.8127 5.00065 11.9993 8.00065 11.9993C11.0007 11.9993 12.42 11.8127 12.7133 11.7307C12.876 11.6853 13.02 11.5353 13.0713 11.336C13.144 11.0533 13.334 9.86602 13.334 7.99935C13.334 6.13268 13.144 4.94602 13.0713 4.66268ZM14.3627 4.33135C14.6673 5.51935 14.6673 7.99935 14.6673 7.99935C14.6673 7.99935 14.6673 10.4793 14.3627 11.6673C14.1933 12.324 13.698 12.8407 13.0707 13.0153C11.9313 13.3327 8.00065 13.3327 8.00065 13.3327C8.00065 13.3327 4.07198 13.3327 2.93065 13.0153C2.30065 12.838 1.80598 12.322 1.63865 11.6673C1.33398 10.4793 1.33398 7.99935 1.33398 7.99935C1.33398 7.99935 1.33398 5.51935 1.63865 4.33135C1.80798 3.67468 2.30332 3.15802 2.93065 2.98335C4.07198 2.66602 8.00065 2.66602 8.00065 2.66602C8.00065 2.66602 11.9313 2.66602 13.0707 2.98335C13.7007 3.16068 14.1953 3.67668 14.3627 4.33135V4.33135ZM6.66732 10.3327V5.66602L10.6673 7.99935L6.66732 10.3327Z" fill="#000091"/>
</svg>
