<svg width="140" height="141" viewBox="0 0 140 141" fill="none" xmlns="http://www.w3.org/2000/svg">
<path fill-rule="evenodd" clip-rule="evenodd" d="M8.92578 82.541C7.87578 82.541 7.17578 81.841 7.17578 80.791C7.17578 79.741 7.87578 79.041 8.92578 79.041C9.97578 79.041 10.6758 79.741 10.6758 80.791C10.6758 81.841 9.97578 82.541 8.92578 82.541Z" fill="#ECECFE"/>
<path fill-rule="evenodd" clip-rule="evenodd" d="M71.9258 11.3164C70.8758 11.3164 70.1758 10.6164 70.1758 9.56641C70.1758 8.51641 70.8758 7.81641 71.9258 7.81641C72.9758 7.81641 73.6758 8.51641 73.6758 9.56641C73.6758 10.6164 72.9758 11.3164 71.9258 11.3164Z" fill="#ECECFE"/>
<path fill-rule="evenodd" clip-rule="evenodd" d="M124.076 49.8164C123.026 49.8164 122.326 49.1164 122.326 48.0664C122.326 47.0164 123.026 46.3164 124.076 46.3164C125.126 46.3164 125.826 47.0164 125.826 48.0664C125.826 49.1164 125.126 49.8164 124.076 49.8164Z" fill="#ECECFE"/>
<path fill-rule="evenodd" clip-rule="evenodd" d="M51.9766 129.441C50.9266 129.441 50.2266 128.741 50.2266 127.691C50.2266 126.641 50.9266 125.941 51.9766 125.941C53.0266 125.941 53.7266 126.641 53.7266 127.691C53.7266 128.566 53.0266 129.441 51.9766 129.441Z" fill="#ECECFE"/>
<path d="M30.8142 70.8755C29.848 72.4062 29.3591 73.9481 29.1137 75.1142C28.9916 75.6946 28.9317 76.1728 28.9024 76.497C28.8879 76.6588 28.881 76.7813 28.8778 76.8578C28.8762 76.896 28.8755 76.9226 28.8752 76.9369L28.875 76.9451L28.875 76.9484C28.8712 77.9117 28.0892 78.6914 27.125 78.6914C26.1585 78.6914 25.375 77.9079 25.375 76.9414V47.1914C25.375 46.2249 26.1585 45.4414 27.125 45.4414C28.0915 45.4414 28.875 46.2249 28.875 47.1914V67.5786V69.9419L30.8142 70.8755Z" fill="#E1000F"/>
<path fill-rule="evenodd" clip-rule="evenodd" d="M100.895 45.4626C101.85 45.6117 102.503 46.5067 102.354 47.4616L100.625 47.1917C102.354 47.4616 102.354 47.461 102.354 47.4616L102.354 47.4642L102.352 47.4744L102.349 47.4931L102.339 47.5483C102.331 47.5929 102.32 47.6529 102.305 47.7274C102.274 47.8763 102.228 48.0836 102.161 48.342C102.027 48.8587 101.81 49.5816 101.469 50.4539C100.788 52.1986 99.6106 54.5458 97.6158 57.0358C97.0115 57.7901 95.9102 57.9117 95.1559 57.3074C94.4016 56.7032 94.28 55.6018 94.8842 54.8475C96.6267 52.6724 97.6371 50.6446 98.2089 49.1806C98.4948 48.4486 98.6706 47.8586 98.773 47.4636C98.8241 47.2662 98.8569 47.1179 98.8759 47.0252C98.8854 46.9789 98.8914 46.9466 98.8945 46.929L98.8961 46.9205C98.8965 46.9184 98.8968 46.9163 98.8971 46.9142C99.0498 45.9633 99.9426 45.3139 100.895 45.4626ZM28.875 76.9437L28.875 76.9455L28.875 76.9482L28.8752 76.9385C28.8755 76.9248 28.8762 76.8986 28.8778 76.8609C28.8811 76.7854 28.8882 76.6641 28.9032 76.5034C28.9334 76.1815 28.9953 75.7058 29.1217 75.1281C29.3755 73.9679 29.8818 72.4304 30.885 70.9018C32.8228 67.949 36.8342 64.6917 45.5 64.6917C50.4613 64.6917 54.1362 64.9077 57.3478 65.1252C57.7415 65.1518 58.1293 65.1786 58.5125 65.2051C61.2466 65.3939 63.7491 65.5667 66.5 65.5667C67.4665 65.5667 68.25 64.7832 68.25 63.8167C68.25 62.8502 67.4665 62.0667 66.5 62.0667C63.8779 62.0667 61.5016 61.9028 58.7577 61.7136C58.3743 61.6871 57.9837 61.6602 57.5843 61.6332C54.3357 61.4132 50.5732 61.1917 45.5 61.1917C35.7908 61.1917 30.6147 64.9343 27.9588 68.9815C26.6651 70.9529 26.023 72.9154 25.7025 74.3802C25.5418 75.115 25.4601 75.733 25.4185 76.1768C25.3977 76.3989 25.3868 76.5783 25.3812 76.7079C25.3783 76.7728 25.3768 76.8252 25.376 76.8645L25.3752 76.9133L25.375 76.9301L25.375 76.9365L25.375 76.9393C25.375 76.9405 25.375 76.9417 27.125 76.9417H25.375C25.375 77.9082 26.1585 78.6917 27.125 78.6917C28.089 78.6917 28.8709 77.9112 28.875 76.9482C28.875 76.9463 28.875 76.9456 28.875 76.9437Z" fill="#E1000F"/>
<path d="M87.6357 99.7115C87.3211 100.625 87.8068 101.621 88.7206 101.936C92.3717 103.193 96.361 101.247 97.6182 97.5963C98.8754 93.9453 96.9296 89.9558 93.2786 88.6986C89.6276 87.4415 85.6381 89.3873 84.381 93.0383C84.0663 93.9521 84.552 94.948 85.4659 95.2627C86.3797 95.5774 87.3756 95.0916 87.6903 94.1778L87.7842 93.9345C88.4993 92.2692 90.3987 91.4087 92.1391 92.008C93.9624 92.6358 94.9367 94.6335 94.3089 96.4568C93.6811 98.2802 91.6835 99.2544 89.8601 98.6266C88.9463 98.3119 87.9504 98.7977 87.6357 99.7115Z" fill="#E1000F"/>
<path fill-rule="evenodd" clip-rule="evenodd" d="M27.125 85.6914C21.8093 85.6914 17.5 90.0007 17.5 95.3164C17.5 100.632 21.8093 104.941 27.125 104.941C32.4407 104.941 36.75 100.632 36.75 95.3164C36.75 90.0007 32.4407 85.6914 27.125 85.6914ZM14 95.3164C14 88.0677 19.8763 82.1914 27.125 82.1914C34.3737 82.1914 40.25 88.0677 40.25 95.3164C40.25 102.565 34.3737 108.441 27.125 108.441C19.8763 108.441 14 102.565 14 95.3164Z" fill="#000091"/>
<path fill-rule="evenodd" clip-rule="evenodd" d="M27.125 19.1914C21.8093 19.1914 17.5 23.5007 17.5 28.8164C17.5 34.1321 21.8093 38.4414 27.125 38.4414C32.4407 38.4414 36.75 34.1321 36.75 28.8164C36.75 23.5007 32.4407 19.1914 27.125 19.1914ZM14 28.8164C14 21.5677 19.8763 15.6914 27.125 15.6914C34.3737 15.6914 40.25 21.5677 40.25 28.8164C40.25 36.0651 34.3737 41.9414 27.125 41.9414C19.8763 41.9414 14 36.0651 14 28.8164Z" fill="#000091"/>
<path fill-rule="evenodd" clip-rule="evenodd" d="M100.625 19.1914C95.3093 19.1914 91 23.5007 91 28.8164C91 34.1321 95.3093 38.4414 100.625 38.4414C105.941 38.4414 110.25 34.1321 110.25 28.8164C110.25 23.5007 105.941 19.1914 100.625 19.1914ZM87.5 28.8164C87.5 21.5677 93.3763 15.6914 100.625 15.6914C107.874 15.6914 113.75 21.5677 113.75 28.8164C113.75 36.0651 107.874 41.9414 100.625 41.9414C93.3763 41.9414 87.5 36.0651 87.5 28.8164Z" fill="#000091"/>
<path fill-rule="evenodd" clip-rule="evenodd" d="M91 63.8164C73.603 63.8164 59.5 77.9194 59.5 95.3164C59.5 101.349 61.194 106.98 64.1313 111.767C66.4937 115.617 69.6609 118.921 73.3983 121.444C74.1993 121.985 74.4103 123.072 73.8695 123.873C73.3288 124.674 72.241 124.885 71.44 124.345C67.2893 121.543 63.7724 117.874 61.1481 113.597C57.8825 108.276 56 102.013 56 95.3164C56 75.9864 71.67 60.3164 91 60.3164C110.33 60.3164 126 75.9864 126 95.3164C126 96.2829 125.216 97.0664 124.25 97.0664C123.284 97.0664 122.5 96.2829 122.5 95.3164C122.5 77.9194 108.397 63.8164 91 63.8164Z" fill="#000091"/>
<path d="M66.5046 93.5664L66.5057 92.5974L66.5337 92.3211C66.7231 91.1601 67.6731 90.2785 68.8327 90.1661L69.0842 90.154L70.4505 90.1547L70.6761 90.149C71.5957 90.0912 72.4125 89.532 72.8328 88.6398L73.228 87.6959L73.3885 87.3351C73.7958 86.459 73.6536 85.4146 73.0342 84.659L72.8535 84.4604L71.746 83.3409L71.5549 83.0991C70.9047 82.1516 70.9625 80.8891 71.6828 80.0007L71.8608 79.8026L75.6174 76.0566L75.7325 75.9611C76.4762 75.3438 77.5794 75.4463 78.1967 76.1899C78.7666 76.8764 78.7231 77.8693 78.1281 78.5035L77.9679 78.6542L77.9725 78.6406L74.9794 81.6365L75.3236 81.9809C77.0469 83.6888 77.5797 86.2553 76.7149 88.4561L76.4413 89.0826L76.1973 89.6593C75.4189 91.814 73.4953 93.3334 71.2025 93.6113L70.8376 93.6448L70.5022 93.654L70.0007 93.6555V96.9805L70.4936 96.979C72.7683 96.9748 74.8478 98.2467 75.8926 100.275L76.0488 100.601L76.1655 100.891C76.2449 101.099 76.3292 101.307 76.4141 101.505L76.5415 101.794C77.4995 103.855 77.2189 106.268 75.8156 108.079L75.5714 108.375L75.3306 108.63L74.9707 108.991L77.9611 111.981C78.5919 112.612 78.6404 113.604 78.1066 114.291L77.9611 114.456C77.3302 115.087 76.3376 115.135 75.651 114.601L75.4862 114.456L71.7408 110.7L71.5494 110.458C70.8979 109.511 70.9538 108.249 71.6736 107.359L71.8515 107.16L72.8177 106.194L72.9809 106.022C73.6386 105.272 73.7944 104.188 73.3614 103.256C73.2525 103.017 73.146 102.768 73.0479 102.526L72.8266 101.967C72.463 101.147 71.6597 100.578 70.7479 100.491L70.4967 100.479L68.9434 100.473L68.6672 100.445C67.5061 100.256 66.6245 99.3058 66.5121 98.1463L66.5 97.8948L66.5009 97.0664L66.5046 93.5664Z" fill="#000091"/>
<path d="M95.9588 110.424C93.9307 111.469 92.6589 113.548 92.663 115.823L92.6644 116.316H89.3394L89.338 115.814L89.3288 115.479L89.2954 115.114C89.0175 112.821 87.498 110.898 85.3433 110.119L84.7666 109.875L84.4673 109.742L84.2761 109.67C83.4396 109.409 82.5219 109.81 82.1576 110.631C81.7652 111.514 82.1632 112.548 83.0464 112.94L83.3799 113.088L84.3239 113.484C85.216 113.904 85.7752 114.721 85.833 115.64L85.8387 115.866L85.838 117.232L85.8501 117.484C85.9625 118.643 86.8441 119.593 88.0052 119.783L88.2814 119.811L93.5788 119.816L93.8303 119.804C94.9899 119.692 95.9399 118.81 96.1292 117.649L96.1573 117.373L96.163 115.82L96.1748 115.569C96.2624 114.657 96.8309 113.853 97.6506 113.49L98.2114 113.268C98.454 113.17 98.7033 113.063 98.946 112.952C99.8735 112.523 100.954 112.679 101.708 113.338L101.88 113.501L102.847 114.467L103.044 114.645C103.93 115.363 105.19 115.424 106.135 114.779L106.377 114.589L110.142 110.823L110.319 110.625C111.038 109.739 111.096 108.476 110.446 107.529L110.254 107.287L109.147 106.167L108.966 105.969C108.347 105.213 108.205 104.169 108.612 103.293C108.73 103.033 108.839 102.781 108.939 102.536L109.074 102.196L109.176 101.953C109.588 101.092 110.408 100.534 111.317 100.483L111.539 100.478L112.916 100.479L113.168 100.467C114.327 100.354 115.277 99.4728 115.467 98.3117L115.495 98.0355L115.5 92.7381L115.488 92.4866C115.376 91.327 114.494 90.377 113.333 90.1876L113.057 90.1596L111.504 90.1539L111.253 90.1421C110.341 90.0544 109.538 89.486 109.174 88.6663L108.953 88.1064C108.854 87.8645 108.748 87.6163 108.639 87.3767C108.206 86.4452 108.362 85.361 109.02 84.6108L109.183 84.4389L110.152 83.47L110.329 83.2723C111.048 82.3852 111.107 81.124 110.459 80.1775L110.268 79.9357L106.521 76.1772L106.323 75.9992C105.434 75.2789 104.172 75.2212 103.224 75.8713L102.982 76.0624L101.857 77.1763L101.659 77.3552C100.906 77.9685 99.8649 78.1094 98.9837 77.7028L98.6282 77.5446L97.6968 77.1554C96.7919 76.7349 96.2282 75.9169 96.1683 74.9909L96.1621 74.7638L96.163 73.4006L96.1509 73.1491C96.0385 71.9895 95.1569 71.0395 93.9958 70.8501L93.7196 70.8221L88.4222 70.8164L88.1707 70.8285C87.0111 70.9409 86.0611 71.8225 85.8717 72.9836L85.8437 73.2598L85.838 74.8131L85.8262 75.0643C85.7385 75.9761 85.17 76.7794 84.3504 77.143L83.7896 77.3647C83.547 77.4631 83.2977 77.5702 83.0549 77.6805C82.1751 78.0805 81.7861 79.1181 82.1861 79.9979C82.5861 80.8777 83.6237 81.2667 84.5035 80.8667C84.8012 80.7313 85.1127 80.6013 85.4259 80.4819L85.7157 80.3652L86.0421 80.209C88.0703 79.1642 89.3421 77.0847 89.338 74.81L89.3394 74.3164H92.6644L92.663 74.8187L92.6728 75.1588L92.705 75.508C92.9829 77.8178 94.5162 79.7507 96.688 80.5223L97.2395 80.7571L97.5399 80.891L97.8676 81.0304C100.071 81.8904 102.625 81.3622 104.332 79.6501L104.689 79.2952L107.034 81.6402L106.67 82.0032L106.429 82.258L106.185 82.5541C104.782 84.3648 104.501 86.7776 105.459 88.8384L105.713 89.4309L105.952 90.0316L106.108 90.3581C107.153 92.3862 109.232 93.658 111.507 93.6539L112.002 93.6539V96.9789H111.498L111.176 96.9859L110.829 97.0153C108.535 97.2743 106.594 98.7914 105.804 100.949L105.692 101.229L105.568 101.523L105.432 101.83L105.291 102.159C104.421 104.372 104.954 106.939 106.677 108.647L107.023 108.994L104.678 111.348L104.314 110.986L104.056 110.743L103.76 110.5C101.95 109.1 99.5451 108.819 97.4873 109.771L97.0408 109.965L96.2853 110.268L95.9588 110.424Z" fill="#000091"/>
</svg>
