<svg width="140" height="141" viewBox="0 0 140 141" fill="none" xmlns="http://www.w3.org/2000/svg">
<path fill-rule="evenodd" clip-rule="evenodd" d="M127.75 55.0664C126.785 55.0664 126 54.2814 126 53.3164C126 52.3514 126.785 51.5664 127.75 51.5664C128.715 51.5664 129.5 52.3514 129.5 53.3164C129.5 54.2814 128.715 55.0664 127.75 55.0664Z" fill="#ECECFE"/>
<path fill-rule="evenodd" clip-rule="evenodd" d="M98 114.566C97.035 114.566 96.25 113.781 96.25 112.816C96.25 111.851 97.035 111.066 98 111.066C98.965 111.066 99.75 111.851 99.75 112.816C99.75 113.781 98.965 114.566 98 114.566Z" fill="#ECECFE"/>
<path fill-rule="evenodd" clip-rule="evenodd" d="M57.75 119.816C56.785 119.816 56 119.031 56 118.066C56 117.101 56.785 116.316 57.75 116.316C58.715 116.316 59.5 117.101 59.5 118.066C59.5 119.031 58.715 119.816 57.75 119.816Z" fill="#ECECFE"/>
<path fill-rule="evenodd" clip-rule="evenodd" d="M42 83.0664C41.035 83.0664 40.25 82.2814 40.25 81.3164C40.25 80.3514 41.035 79.5664 42 79.5664C42.965 79.5664 43.75 80.3514 43.75 81.3164C43.75 82.2814 42.965 83.0664 42 83.0664Z" fill="#ECECFE"/>
<path fill-rule="evenodd" clip-rule="evenodd" d="M36.75 30.5664C35.785 30.5664 35 29.7814 35 28.8164C35 27.8514 35.785 27.0664 36.75 27.0664C37.715 27.0664 38.5 27.8514 38.5 28.8164C38.5 29.7814 37.715 30.5664 36.75 30.5664Z" fill="#ECECFE"/>
<path fill-rule="evenodd" clip-rule="evenodd" d="M22.75 75.3883C21.7835 75.3883 21 76.1718 21 77.1383C21 78.1048 21.7835 78.8883 22.75 78.8883C23.7165 78.8883 24.5 78.1048 24.5 77.1383C24.5 76.1718 23.7165 75.3883 22.75 75.3883ZM17.5 77.1383C17.5 74.2388 19.8505 71.8883 22.75 71.8883C25.6495 71.8883 28 74.2388 28 77.1383C28 80.0378 25.6495 82.3883 22.75 82.3883C19.8505 82.3883 17.5 80.0378 17.5 77.1383Z" fill="#E1000F"/>
<path fill-rule="evenodd" clip-rule="evenodd" d="M22.75 79.0633C23.7165 79.0633 24.5 79.8468 24.5 80.8133V85.3633C24.5 86.3298 23.7165 87.1133 22.75 87.1133C21.7835 87.1133 21 86.3298 21 85.3633V80.8133C21 79.8468 21.7835 79.0633 22.75 79.0633Z" fill="#E1000F"/>
<path fill-rule="evenodd" clip-rule="evenodd" d="M51.2751 50.8883C50.3086 50.8883 49.5251 51.6718 49.5251 52.6383C49.5251 53.6048 50.3086 54.3883 51.2751 54.3883C52.2416 54.3883 53.0251 53.6048 53.0251 52.6383C53.0251 51.6718 52.2416 50.8883 51.2751 50.8883ZM46.0251 52.6383C46.0251 49.7388 48.3756 47.3883 51.2751 47.3883C54.1746 47.3883 56.5251 49.7388 56.5251 52.6383C56.5251 55.5378 54.1746 57.8883 51.2751 57.8883C48.3756 57.8883 46.0251 55.5378 46.0251 52.6383Z" fill="#E1000F"/>
<path fill-rule="evenodd" clip-rule="evenodd" d="M51.2751 54.5633C52.2416 54.5633 53.0251 55.3468 53.0251 56.3133V60.8633C53.0251 61.8298 52.2416 62.6133 51.2751 62.6133C50.3086 62.6133 49.5251 61.8298 49.5251 60.8633V56.3133C49.5251 55.3468 50.3086 54.5633 51.2751 54.5633Z" fill="#E1000F"/>
<path fill-rule="evenodd" clip-rule="evenodd" d="M82.25 42.8382C81.2835 42.8382 80.5 43.6217 80.5 44.5882C80.5 45.5547 81.2835 46.3382 82.25 46.3382C83.2165 46.3382 84 45.5547 84 44.5882C84 43.6217 83.2165 42.8382 82.25 42.8382ZM77 44.5882C77 41.6888 79.3505 39.3382 82.25 39.3382C85.1495 39.3382 87.5 41.6888 87.5 44.5882C87.5 47.4877 85.1495 49.8382 82.25 49.8382C79.3505 49.8382 77 47.4877 77 44.5882Z" fill="#E1000F"/>
<path fill-rule="evenodd" clip-rule="evenodd" d="M82.25 46.6883C83.2165 46.6883 84 47.4718 84 48.4383V52.9883C84 53.9548 83.2165 54.7383 82.25 54.7383C81.2835 54.7383 80.5 53.9548 80.5 52.9883V48.4383C80.5 47.4718 81.2835 46.6883 82.25 46.6883Z" fill="#E1000F"/>
<path fill-rule="evenodd" clip-rule="evenodd" d="M74.2 74.1633C73.2335 74.1633 72.45 74.9468 72.45 75.9133C72.45 76.8798 73.2335 77.6633 74.2 77.6633C75.1665 77.6633 75.95 76.8798 75.95 75.9133C75.95 74.9468 75.1665 74.1633 74.2 74.1633ZM68.95 75.9133C68.95 73.0138 71.3005 70.6633 74.2 70.6633C77.0995 70.6633 79.45 73.0138 79.45 75.9133C79.45 78.8128 77.0995 81.1633 74.2 81.1633C71.3005 81.1633 68.95 78.8128 68.95 75.9133Z" fill="#E1000F"/>
<path fill-rule="evenodd" clip-rule="evenodd" d="M74.2 77.8382C75.1665 77.8382 75.95 78.6217 75.95 79.5882V84.1383C75.95 85.1048 75.1665 85.8883 74.2 85.8883C73.2335 85.8883 72.45 85.1048 72.45 84.1383V79.5882C72.45 78.6217 73.2335 77.8382 74.2 77.8382Z" fill="#E1000F"/>
<path fill-rule="evenodd" clip-rule="evenodd" d="M98.7 84.8382C97.7335 84.8382 96.95 85.6217 96.95 86.5882C96.95 87.5547 97.7335 88.3382 98.7 88.3382C99.6665 88.3382 100.45 87.5547 100.45 86.5882C100.45 85.6217 99.6665 84.8382 98.7 84.8382ZM93.45 86.5882C93.45 83.6888 95.8005 81.3382 98.7 81.3382C101.6 81.3382 103.95 83.6888 103.95 86.5882C103.95 89.4877 101.6 91.8382 98.7 91.8382C95.8005 91.8382 93.45 89.4877 93.45 86.5882Z" fill="#E1000F"/>
<path fill-rule="evenodd" clip-rule="evenodd" d="M98.7 88.6883C99.6665 88.6883 100.45 89.4718 100.45 90.4383V94.9883C100.45 95.9548 99.6665 96.7383 98.7 96.7383C97.7335 96.7383 96.95 95.9548 96.95 94.9883V90.4383C96.95 89.4718 97.7335 88.6883 98.7 88.6883Z" fill="#E1000F"/>
<path fill-rule="evenodd" clip-rule="evenodd" d="M97.825 57.3633C96.8585 57.3633 96.075 58.1468 96.075 59.1133C96.075 60.0798 96.8585 60.8633 97.825 60.8633C98.7915 60.8633 99.575 60.0798 99.575 59.1133C99.575 58.1468 98.7915 57.3633 97.825 57.3633ZM92.575 59.1133C92.575 56.2138 94.9255 53.8633 97.825 53.8633C100.725 53.8633 103.075 56.2138 103.075 59.1133C103.075 62.0128 100.725 64.3633 97.825 64.3633C94.9255 64.3633 92.575 62.0128 92.575 59.1133Z" fill="#E1000F"/>
<path fill-rule="evenodd" clip-rule="evenodd" d="M97.825 61.2132C98.7915 61.2132 99.575 61.9967 99.575 62.9632V67.5133C99.575 68.4798 98.7915 69.2633 97.825 69.2633C96.8585 69.2633 96.075 68.4798 96.075 67.5133V62.9632C96.075 61.9967 96.8585 61.2132 97.825 61.2132Z" fill="#E1000F"/>
<path fill-rule="evenodd" clip-rule="evenodd" d="M108.5 26.7383C107.534 26.7383 106.75 27.5218 106.75 28.4883C106.75 29.4548 107.534 30.2383 108.5 30.2383C109.466 30.2383 110.25 29.4548 110.25 28.4883C110.25 27.5218 109.466 26.7383 108.5 26.7383ZM103.25 28.4883C103.25 25.5888 105.601 23.2383 108.5 23.2383C111.399 23.2383 113.75 25.5888 113.75 28.4883C113.75 31.3878 111.399 33.7383 108.5 33.7383C105.601 33.7383 103.25 31.3878 103.25 28.4883Z" fill="#E1000F"/>
<path fill-rule="evenodd" clip-rule="evenodd" d="M108.5 30.4133C109.466 30.4133 110.25 31.1968 110.25 32.1633V36.7133C110.25 37.6798 109.466 38.4633 108.5 38.4633C107.534 38.4633 106.75 37.6798 106.75 36.7133V32.1633C106.75 31.1968 107.534 30.4133 108.5 30.4133Z" fill="#E1000F"/>
<path d="M91 74.6883H94.5H91Z" fill="#000091"/>
<path d="M70 55.4383H73.5H70Z" fill="#000091"/>
<path d="M98 46.6883H101.5H98Z" fill="#000091"/>
<path d="M17.9186 50.8883C17.2186 50.8883 16.5186 50.3633 16.1686 49.6633L15.1186 44.9383C14.9436 44.0633 15.4686 43.0133 16.3436 42.8383C17.2186 42.6633 18.2686 43.1883 18.4436 44.0633L19.6686 48.6133C19.8436 49.4883 19.3186 50.5383 18.4436 50.7133C18.2686 50.8883 18.0936 50.8883 17.9186 50.8883ZM22.6436 46.6883C21.9436 46.6883 21.0686 46.5133 20.3686 45.8133C19.4936 44.9383 19.6686 43.7133 19.8436 42.8383C19.8436 42.4883 20.0186 41.9633 19.8436 41.7883C19.3186 40.9133 19.4936 39.8633 20.3686 39.3383C21.2436 38.8133 22.2936 38.9883 22.8186 39.8633C23.5186 41.0883 23.5186 42.3133 23.3436 43.1883C23.5186 43.1883 23.5186 43.1883 23.6936 43.1883C24.2186 43.0133 24.9186 43.0133 25.6186 43.0133C26.6686 43.0133 27.3686 43.7133 27.3686 44.7633C27.3686 45.8133 26.6686 46.5133 25.6186 46.5133C25.2686 46.5133 24.7436 46.5133 24.3936 46.6883C23.6936 46.6883 23.1686 46.6883 22.6436 46.6883Z" fill="#000091"/>
<path d="M104.019 35.4883C103.144 32.5133 101.919 31.6383 100.869 31.2883C100.869 31.1133 100.694 30.9383 100.694 30.7633C100.519 30.0633 100.169 29.0133 99.2937 28.3133C98.4187 27.6133 97.5437 27.7883 96.8437 27.7883H96.6687C95.9687 27.4383 95.2687 27.4383 94.5687 27.6133L94.3937 27.4383C93.1687 26.2133 92.1187 25.6883 91.2437 25.3383C91.0687 24.8133 90.7187 24.2883 90.3687 23.7633C89.1437 22.3633 87.9187 22.3633 87.2187 22.3633C87.0437 22.1883 87.0437 22.0133 86.8687 21.8383C86.1687 20.7883 85.6437 20.0883 83.8937 20.0883C81.9687 19.9133 77.2437 20.7883 75.4937 22.7133C73.9187 24.2883 73.2187 26.0383 73.2187 27.9633C73.2187 28.3133 73.2187 28.8383 73.3937 29.1883C73.3937 29.3633 73.3937 29.7133 73.5687 29.7133C72.8687 30.0633 72.3437 30.2383 71.6437 30.4133C70.7687 30.5883 69.8937 30.9383 68.6687 31.8133C68.4937 31.8133 68.3187 31.9883 68.1437 31.9883C67.2687 32.1633 65.8687 32.6883 65.5187 34.0883V34.2633C65.3437 34.2633 65.1687 34.0883 64.9937 33.9133C64.8187 33.7383 64.4687 33.3883 64.2937 33.2133C63.7687 32.5133 63.0687 31.8133 62.3687 31.2883C61.3187 30.5883 60.4437 30.7633 59.7437 31.1133C57.6437 30.5883 56.2437 31.1133 55.5437 31.6383C54.6687 32.1633 53.6187 33.2133 53.2687 35.4883C53.0937 36.7133 53.6187 37.7633 54.4937 38.9883C54.1437 38.6383 53.4437 38.1133 52.3937 38.1133C50.8187 38.1133 47.6687 38.1133 44.6937 38.6383C44.5187 38.6383 44.5187 38.6383 44.3437 38.8133L43.4687 39.1633C40.6687 40.2133 36.1187 41.7883 36.9937 45.9883C37.1687 46.8633 37.1687 47.7383 37.1687 47.7383C37.1687 48.2633 37.3437 48.7883 37.8687 49.1383L38.7437 49.6633C38.7437 50.5383 38.7437 51.7633 39.7937 52.6383C40.1437 52.9883 40.8437 53.8633 41.5437 54.5633C42.2437 55.4383 42.7687 55.9633 42.9437 56.1383C43.2937 56.4883 43.6437 56.6633 44.1687 56.6633C44.6937 56.6633 45.0437 56.4883 45.3937 56.1383C46.0937 55.4383 45.9187 54.3883 45.2187 53.6883C45.0437 53.5133 44.5187 52.9883 43.9937 52.2883C43.2937 51.5883 42.5937 50.7133 42.2437 50.3633C42.2437 50.1883 42.2437 49.8383 42.2437 49.6633C42.2437 49.4883 42.2437 49.1383 42.2437 48.9633C42.2437 48.4383 41.8937 47.9133 41.5437 47.5633L40.6687 46.8633C40.6687 46.3383 40.4937 45.8133 40.4937 45.1133C40.3187 44.0633 42.4187 43.1883 44.6937 42.3133L45.3937 41.9633C47.8437 41.6133 50.4687 41.6133 51.8687 41.6133C52.5687 43.7133 54.1437 43.5383 55.0187 43.3633C55.0187 43.3633 55.3687 43.3633 55.5437 43.5383C56.0687 43.7133 57.9937 44.2383 58.8687 42.6633C59.7437 41.0883 58.6937 39.3383 57.6437 37.7633C57.2937 37.2383 56.7687 36.3633 56.5937 36.0133C56.7687 35.3133 56.9437 34.7883 57.2937 34.6133C57.6437 34.4383 58.3437 34.4383 58.6937 34.6133C59.5687 34.7883 60.2687 34.7883 60.6187 34.6133C60.9687 34.7883 61.1437 35.1383 61.4937 35.4883C61.8437 35.8383 62.1937 36.3633 62.7187 36.7133C63.5937 37.4133 65.3437 38.2883 66.9187 37.9383C67.7937 37.7633 68.3187 37.2383 68.6687 36.5383C68.8437 36.0133 68.8437 35.6633 68.8437 35.3133H69.0187C69.5437 35.1383 70.0687 34.9633 70.5937 34.6133C71.2937 34.0883 71.8187 33.9133 72.5187 33.7383C73.2187 33.5633 74.2687 33.2133 75.3187 32.5133C77.2437 31.2883 76.8937 29.5383 76.7187 28.4883C76.7187 28.3133 76.7187 27.9633 76.7187 27.7883C76.7187 27.0883 76.8937 26.0383 77.9437 24.8133C78.6437 24.1133 81.7937 23.2383 83.5437 23.2383C83.5437 23.2383 83.5437 23.4133 83.7187 23.4133C83.8937 23.5883 84.0687 23.9383 84.2437 24.2883C85.2937 25.6883 86.5187 25.5133 87.0437 25.5133C87.2187 25.5133 87.2187 25.5133 87.3937 25.5133C87.5687 25.6883 87.9187 26.3883 88.0937 26.9133C88.2687 27.4383 88.7937 27.9633 89.4937 28.1383C89.4937 28.1383 90.5437 28.3133 91.7687 29.5383C92.6437 30.4133 93.8687 31.2883 95.2687 30.7633C95.9687 30.9383 96.4937 30.9383 97.0187 30.9383C97.0187 31.1133 97.0187 31.2883 97.1937 31.4633C97.3687 31.8133 97.3687 32.3383 97.5437 32.6883C98.0687 33.7383 98.7687 34.0883 99.2937 34.2633C99.6437 34.4383 99.9937 34.6133 100.519 36.3633C100.869 37.2383 101.744 37.7633 102.619 37.5883C103.844 37.2383 104.369 36.3633 104.019 35.4883Z" fill="#000091"/>
<path d="M21.4186 68.2133C20.5436 68.2133 19.8436 67.5133 19.6686 66.6383C19.4936 65.7633 20.1936 64.8883 21.2436 64.7133L22.4686 64.5383C21.7686 64.1883 20.8936 63.6633 19.8436 63.1383C18.4436 62.4383 17.9186 61.3883 17.5686 60.6883C17.3936 60.3383 17.2186 59.9883 16.8686 59.6383C16.1686 58.9383 16.3436 57.8883 17.0436 57.1883C17.7436 56.4883 18.7936 56.6633 19.4936 57.3633C20.0186 57.8883 20.3686 58.5883 20.5436 59.1133C20.8936 59.8133 21.0686 59.9883 21.2436 60.1633C27.5436 63.3133 28.5936 64.5383 28.2436 65.9383C28.0686 66.6383 27.5436 67.5133 26.3186 67.6883L21.4186 68.3883C21.4186 68.2133 21.4186 68.2133 21.4186 68.2133Z" fill="#000091"/>
<path d="M31.3936 86.0633L30.8686 85.1883C30.3436 84.3133 29.2936 84.1383 28.4186 84.6633C27.5436 85.1883 27.3686 86.2383 27.8936 87.1133L28.0686 87.4633L27.8936 88.6883C27.7186 88.8633 27.7186 89.0383 27.5436 89.2133C27.1936 89.7383 26.6686 90.2633 26.3186 90.6133C26.1436 90.7883 25.9686 90.9633 25.9686 91.3133C25.7936 91.6633 25.6186 92.3633 25.4436 92.8883C25.4436 93.0633 25.2686 93.2383 25.2686 93.2383H25.0936C24.9186 93.2383 24.7436 93.2383 24.5686 93.0633C24.5686 93.0633 24.5686 93.0633 24.3936 93.0633L24.2186 92.8883C24.0436 92.7133 23.8686 92.5383 23.6936 92.3633C23.3436 92.1883 22.9936 92.0133 22.4686 92.0133C22.2936 92.0133 21.9436 92.0133 21.7686 92.1883C21.7686 92.1883 21.5936 92.1883 21.4186 92.0133C21.4186 92.0133 21.2436 92.0133 21.0686 91.8383L21.4186 91.1383C21.7686 90.6133 21.7686 89.9133 21.4186 89.3883L20.1936 87.2883C19.6686 86.4133 18.6186 86.2383 17.7436 86.7633C16.8686 87.2883 16.6936 88.3383 17.2186 89.2133L17.9186 90.4383L16.6936 92.3633C16.3436 92.8883 16.3436 93.5883 16.6936 94.1133C17.0436 94.6383 17.5686 94.9883 18.0936 94.9883L19.4936 95.1633C19.4936 95.1633 19.4936 95.1633 19.6686 95.1633C19.8436 95.3383 20.0186 95.3383 20.1936 95.5133C20.3686 95.6883 20.7186 95.6883 21.2436 95.8633C21.4186 95.8633 21.7686 95.8633 22.1186 95.8633C22.4686 96.2133 22.9936 96.3883 23.3436 96.5633C23.6936 96.7383 24.2186 96.7383 24.5686 96.9133C24.9186 96.9133 25.4436 96.9133 25.9686 96.9133C26.3186 96.9133 26.8436 96.7383 27.3686 96.3883C27.5436 96.3883 27.5436 96.2133 27.5436 96.2133C27.7186 96.0383 27.7186 96.0383 27.8936 95.8633C28.0686 95.6883 28.0686 95.5133 28.2436 95.3383C28.4186 94.9883 28.5936 94.6383 28.7686 94.4633C28.9436 93.9383 29.1186 93.4133 29.2936 93.0633C29.6436 92.7133 29.9936 92.1883 30.3436 91.8383C30.5186 91.4883 30.8686 91.3133 31.0436 91.1383C31.0436 90.9633 31.2186 90.9633 31.3936 90.7883C31.3936 90.7883 31.5686 90.6133 31.5686 90.4383C31.5686 90.4383 31.7436 90.0883 31.7436 89.9133L31.9186 87.6383C31.7436 86.9383 31.5686 86.4133 31.3936 86.0633Z" fill="#000091"/>
<path d="M30.3437 113.188L30.8687 112.488L30.3437 113.188ZM30.8687 112.488C31.2187 111.963 31.2187 111.438 31.0437 110.913L30.3437 108.813L30.5187 108.113C30.5187 107.763 30.5187 107.588 30.5187 107.238L30.3437 106.538C30.1687 105.838 29.6437 105.488 28.9437 105.313H28.2437L27.0187 104.088L26.6687 102.863C26.4937 102.163 25.7937 101.638 25.0937 101.638L22.8187 101.463L20.0187 101.988C19.8437 101.988 19.4937 102.163 19.3187 102.163L15.8187 104.263C15.2937 104.613 14.9437 105.138 14.9437 105.663V106.713L14.4187 107.238C14.0687 107.763 13.8937 108.288 14.0687 108.813L14.7687 109.688C14.7687 110.038 14.9437 110.213 15.2937 110.388L16.6937 111.788L17.3937 112.838L17.7437 113.188C17.9187 113.363 18.0937 113.538 18.4437 113.713C18.6187 113.888 18.9687 114.063 19.4937 114.238C19.6687 114.238 20.0187 114.413 20.0187 114.413C20.1937 114.413 20.3687 114.413 20.5437 114.413C20.8937 114.413 21.4187 114.588 21.9437 114.588C22.9937 114.763 24.0437 114.938 24.7437 114.938C24.9187 114.938 25.2687 114.938 25.4437 114.938L29.6437 113.713C29.9937 113.538 30.3437 113.363 30.5187 113.013M24.7437 106.888L24.9187 107.063L26.1437 108.113C26.3187 108.288 26.6687 108.463 26.8437 108.463C26.8437 108.813 26.8437 108.988 26.8437 109.338L27.1937 110.738L24.3937 111.613C23.6937 111.613 22.8187 111.438 21.9437 111.263C21.4187 111.263 21.0687 111.088 20.7187 111.088C20.5437 111.088 20.5437 111.088 20.3687 111.088C20.3687 111.088 20.1937 111.088 20.1937 110.913C20.0187 110.913 20.0187 110.738 19.8437 110.738L19.4937 109.863C19.4937 109.688 19.3187 109.688 19.3187 109.513L18.4437 108.638L18.6187 108.463C18.7937 108.113 18.9687 107.763 18.9687 107.413V106.888L21.2437 105.488L23.5187 105.138H24.0437L24.2187 105.488C24.2187 105.663 24.3937 105.838 24.5687 106.013L24.7437 106.888Z" fill="#000091"/>
<path d="M125.019 115.288C125.019 115.113 124.844 115.113 124.669 114.938C125.019 114.063 125.019 113.363 124.844 112.488C124.844 112.138 124.844 111.788 124.669 111.438C124.669 111.263 124.844 111.263 124.844 111.263C125.194 110.738 125.894 109.863 125.719 108.463C125.544 107.063 124.669 106.188 123.969 105.663C123.619 105.313 123.444 105.138 123.269 104.963C123.269 104.788 123.269 104.263 123.269 103.913C123.269 103.038 123.269 101.813 122.219 100.938C121.869 100.763 121.169 100.413 119.944 100.763C118.194 101.463 112.769 106.013 113.294 108.988C113.294 109.338 113.469 109.688 113.644 109.863C113.644 110.038 113.469 110.038 113.469 110.213C112.594 111.963 113.994 113.363 114.519 113.888C114.694 114.063 114.869 114.238 115.044 114.238C115.044 114.413 115.044 114.588 114.869 114.763C114.344 116.338 114.694 117.563 115.919 118.263C116.094 118.263 116.269 118.438 116.444 118.438C116.619 118.963 116.969 119.488 117.494 119.838C118.369 120.538 119.944 120.888 121.344 120.888C122.394 120.888 123.269 120.713 124.144 120.363C124.494 120.188 125.894 119.488 126.244 118.088C126.244 116.863 125.544 115.988 125.019 115.288ZM122.394 109.163C122.044 109.513 121.519 110.388 121.519 111.613C121.519 112.138 121.519 112.663 121.694 113.013C121.694 113.188 121.694 113.538 121.694 113.538C120.819 115.288 121.869 116.688 122.394 117.388C121.869 117.563 120.644 117.563 119.944 117.213C119.944 116.863 119.769 116.338 119.594 115.988C119.244 115.638 118.894 115.463 118.544 115.288C118.719 114.763 118.719 114.238 118.544 113.538C118.369 112.488 117.669 111.963 117.144 111.438C117.319 111.263 117.494 110.913 117.669 110.388C117.844 109.338 117.494 108.638 116.969 108.113C117.319 107.238 118.719 105.663 119.944 104.788C119.944 105.313 120.119 105.838 120.294 106.363C120.644 107.238 121.344 107.588 121.694 108.113C122.219 108.638 122.219 108.638 122.394 108.813C122.394 108.988 122.394 108.988 122.394 109.163Z" fill="#000091"/>
<path d="M121.344 82.0383C121.169 80.6383 120.119 79.0633 119.419 78.3633C118.719 77.4883 117.844 77.3133 117.144 77.3133C117.319 76.9633 117.319 76.4383 116.969 75.9133C116.794 75.3883 116.444 75.0383 116.094 74.8633C116.444 74.5133 116.794 73.9883 116.969 73.4633C117.319 72.2383 116.619 70.1383 116.269 69.2633C116.094 68.9133 115.744 68.5633 115.394 68.2133C115.919 67.6883 116.094 66.9883 115.919 66.2883C115.744 65.2383 115.044 64.3633 114.344 63.6633C114.169 63.4883 113.819 62.9633 113.644 62.9633C113.644 62.7883 113.644 62.6133 113.644 62.4383C113.644 61.7383 113.644 60.3383 112.769 59.4633C113.294 58.9383 113.819 58.2383 114.169 57.5383C114.344 57.3633 114.869 57.1883 115.044 57.1883C116.094 56.6633 118.544 55.6133 118.019 53.3383C117.669 51.2383 117.494 50.3633 118.019 48.7883C118.194 48.0883 118.369 47.7383 118.544 47.2133C118.719 46.6883 118.894 45.9883 119.069 45.1133C119.069 44.9383 119.244 44.9383 119.419 44.5883C119.769 44.0633 120.469 43.1883 120.294 41.7883C120.294 41.6133 120.294 41.2633 120.294 41.0883C120.294 40.2133 120.294 38.8133 118.894 37.7633C117.494 36.7133 116.094 36.8883 115.044 37.0633C114.694 37.0633 114.344 37.0633 113.994 37.0633C112.944 37.0633 112.244 37.7633 112.244 38.8133C112.244 39.8633 112.944 40.5633 113.994 40.5633C114.519 40.5633 115.044 40.5633 115.394 40.3883C116.269 40.2133 116.444 40.2133 116.794 40.3883C116.794 40.3883 116.794 40.7383 116.794 40.9133C116.794 41.2633 116.794 41.6133 116.794 41.7883L116.619 41.9633C116.269 42.3133 115.919 42.8383 115.744 43.5383C115.394 44.4133 115.219 45.1133 115.044 45.8133C114.869 46.1633 114.869 46.6883 114.694 47.3883C113.994 49.6633 114.169 51.2383 114.519 53.3383C114.344 53.5133 113.994 53.6883 113.644 53.6883C112.594 54.2133 111.194 54.7383 110.844 56.1383C110.669 56.4883 109.619 57.1883 109.094 57.5383C108.219 58.0633 106.994 58.9383 107.169 60.3383C107.169 60.8633 107.694 61.7383 108.919 62.0883C109.094 62.0883 109.444 62.2633 109.619 62.0883C109.794 62.0883 109.794 62.0883 109.969 62.0883C109.969 62.6133 109.969 63.1383 110.144 63.6633C110.319 64.7133 111.019 65.4133 111.544 65.9383C111.544 65.9383 111.544 65.9383 111.719 66.1133C110.319 66.9883 110.144 68.0383 110.319 68.9133C110.669 70.3133 111.894 71.0133 112.944 71.1883C113.119 71.7133 113.119 72.0633 113.119 72.4133C113.119 72.4133 112.944 72.4133 112.944 72.5883C112.244 72.9383 111.019 73.8133 111.194 75.3883C111.369 76.4383 111.894 76.9633 112.419 77.3133C112.069 77.8383 111.894 78.7133 112.244 79.5883C113.119 81.3383 115.044 81.1633 115.919 80.9883C116.094 80.9883 116.269 80.9883 116.444 80.9883C116.969 81.6883 117.319 82.3883 117.494 82.7383C117.319 83.0883 116.969 83.6133 116.794 84.3133C116.794 84.6633 116.619 85.0133 116.619 85.3633C116.619 85.5383 116.619 85.5383 116.619 85.5383C116.619 85.5383 116.619 85.5383 116.444 85.8883L115.919 86.4133C115.569 86.7633 115.394 86.9383 114.694 87.4633C114.519 87.6383 114.344 87.6383 113.994 87.8133C113.294 88.1633 112.594 88.5133 112.069 89.2133C111.544 89.7383 111.369 90.4383 111.194 90.7883C111.019 91.1383 111.019 91.1383 111.019 91.3133C110.319 91.8383 109.444 92.3633 108.394 92.7133C107.344 93.0633 105.594 92.7133 105.069 92.7133C104.019 92.5383 103.144 93.0633 102.969 94.1133C102.794 94.9883 103.319 96.0383 104.369 96.2133C104.544 96.2133 105.594 96.3883 106.994 96.3883C107.694 96.3883 108.569 96.3883 109.269 96.0383C110.844 95.6883 112.244 94.9883 113.294 93.9383C113.994 93.2383 114.344 92.5383 114.519 92.0133C114.694 91.6633 114.694 91.4883 114.694 91.4883C114.869 91.3133 115.219 91.1383 115.569 90.9633C116.094 90.7883 116.619 90.4383 116.969 90.0883C117.669 89.3883 118.019 89.2133 118.369 88.6883L118.894 88.1633C119.944 87.1133 120.119 86.4133 120.119 85.5383C120.119 85.3633 120.119 85.1883 120.119 84.8383C120.119 84.8383 120.119 84.8383 120.294 84.6633C120.994 83.9633 121.519 83.2633 121.344 82.0383Z" fill="#000091"/>
<path d="M92.6436 95.1633C92.4686 94.9883 92.4686 94.9883 92.4686 94.8133C92.4686 94.6383 92.2936 94.4633 92.9936 93.7633C93.6936 93.0633 93.6936 92.0133 92.9936 91.3133C92.2936 90.6133 91.2436 90.6133 90.5436 91.3133C90.0186 91.8383 88.4436 93.5883 89.3186 95.8633C89.4936 96.5633 89.8436 97.0883 90.1936 97.4383V97.6133C90.1936 98.1383 90.0186 98.3133 90.0186 98.3133C89.8436 98.3133 89.6686 98.3133 89.4936 98.4883C88.7936 98.6633 87.9186 98.6633 87.0436 99.3633C86.3436 99.7133 85.8186 99.7133 84.7686 99.3633C83.7186 99.1883 82.4936 99.0133 81.4436 99.1883C80.7436 99.3633 80.3936 99.3633 79.3436 98.6633C78.8186 98.3133 78.6436 97.9633 78.2936 97.6133C78.1186 97.2633 77.7686 96.9133 77.2436 96.5633C76.5436 96.0383 75.6686 95.8633 74.7936 96.0383C74.0936 96.2133 73.5686 96.5633 73.2186 97.0883C73.0436 97.0883 72.8686 97.0883 72.5186 97.0883C71.8186 97.0883 71.4686 96.9133 71.2936 96.9133C70.9436 96.9133 70.5936 96.7383 69.8936 96.7383C69.7186 96.7383 69.3686 96.7383 69.0186 96.7383C68.4936 96.7383 67.4436 96.5633 67.2686 96.5633C66.2186 95.5133 64.9936 95.5133 64.2936 95.5133C63.7686 95.5133 63.7686 95.5133 63.5936 95.5133C63.4186 95.5133 63.4186 95.3383 63.2436 95.1633C62.8936 94.6383 62.3686 93.9383 61.3186 93.5883C60.9686 93.4133 60.6186 93.4133 60.0936 93.2383C59.7436 93.2383 59.2186 93.0633 58.8686 92.8883C58.8686 92.7133 58.6936 92.5383 58.5186 92.3633C58.1686 91.8383 57.9936 91.1383 57.2936 90.6133C56.5936 90.0883 56.0686 89.9133 55.5436 89.9133C55.5436 89.7383 55.5436 89.5633 55.5436 89.3883V88.8633C55.5436 88.6883 55.8936 88.5133 56.0686 88.3383C56.4186 87.9883 57.1186 87.2883 57.4686 86.4133C57.6436 85.8883 57.8186 85.5383 57.9936 85.3633C58.3436 84.4883 58.5186 83.9633 58.6936 82.5633C58.6936 82.2133 58.8686 81.8633 59.0436 81.3383C59.2186 80.6383 59.3936 79.7633 59.3936 79.0633C59.3936 78.1883 59.2186 77.6633 59.0436 77.4883V77.3133C59.0436 76.6133 59.2186 76.2633 59.3936 75.7383L59.5686 75.0383C59.7436 74.5133 59.7436 73.8133 59.9186 73.1133C59.9186 72.7633 59.9186 72.4133 59.9186 72.2383C60.0936 71.3633 59.9186 70.4883 59.7436 69.7883C59.7436 69.4383 59.5686 69.0883 59.5686 68.9133C59.5686 68.7383 59.5686 68.5633 59.7436 68.3883C59.9186 67.6883 60.6186 65.4133 58.5186 64.5383C58.3436 64.3633 57.4686 63.8383 56.9436 63.3133C56.2436 62.6133 55.1936 62.6133 54.4936 63.3133C53.7936 64.0133 53.7936 65.0633 54.4936 65.7633C54.8436 66.1133 55.5436 66.8133 56.4186 67.3383C56.4186 67.3383 56.4186 67.3383 56.4186 67.5133C56.4186 67.6883 56.2436 68.2133 56.2436 68.7383C56.2436 69.4383 56.4186 69.9633 56.4186 70.3133C56.5936 70.8383 56.5936 71.0133 56.5936 71.3633C56.5936 71.7133 56.4186 72.2383 56.4186 72.7633C56.4186 73.1133 56.4186 73.6383 56.2436 73.8133L56.0686 74.5133C55.8936 75.2133 55.7186 75.9133 55.5436 76.7883C55.3686 77.8383 55.7186 78.3633 55.8936 78.7133C55.8936 78.8883 55.8936 78.8883 55.8936 79.0633C55.8936 79.4133 55.7186 79.9383 55.5436 80.4633C55.3686 80.9883 55.1936 81.6883 55.1936 82.2133C55.0186 83.2633 55.0186 83.4383 54.8436 83.9633C54.6686 84.3133 54.4936 84.6633 54.3186 85.1883C54.1436 85.3633 53.9686 85.7133 53.6186 86.0633C52.9186 86.7633 52.0436 87.6383 52.0436 89.2133V89.5633C52.0436 90.4383 52.0436 91.6633 53.2686 92.8883C53.9686 93.5883 54.6686 93.5883 55.1936 93.5883C55.1936 93.7633 55.3686 93.9383 55.3686 93.9383C55.7186 94.6383 56.2436 95.5133 57.1186 96.0383C57.8186 96.3883 58.5186 96.5633 59.2186 96.7383C59.5686 96.7383 59.9186 96.9133 60.0936 96.9133C60.0936 96.9133 60.2686 97.0883 60.2686 97.2633C60.6186 97.6133 60.9686 98.1383 61.6686 98.4883C62.7186 99.1883 63.7686 99.0133 64.2936 99.0133C64.4686 99.0133 64.6436 99.0133 64.8186 99.0133C65.8686 100.063 67.4436 100.063 68.6686 100.238C68.8436 100.238 69.1936 100.238 69.3686 100.238C70.0686 100.238 70.2436 100.413 70.5936 100.413C70.9436 100.413 71.2936 100.588 72.1686 100.588C72.8686 100.588 74.4436 100.763 75.4936 99.8883C75.8436 100.413 76.3686 100.938 77.2436 101.638C79.1686 102.863 80.3936 102.863 81.7936 102.688C82.3186 102.688 82.8436 102.513 83.7186 102.863C84.2436 103.038 84.9436 103.213 85.8186 103.213C86.6936 103.213 87.5686 103.038 88.6186 102.513C88.9686 102.338 89.3186 102.163 89.8436 102.163C91.4186 101.988 92.9936 101.463 93.3436 98.3133C93.6936 96.5633 93.3436 95.8633 92.6436 95.1633Z" fill="#000091"/>
</svg>
